<svg xmlns="http://www.w3.org/2000/svg" width="250" height="243.29" viewBox="0 0 564.81486 549.64452"><path fill="#101820" d="M472.74 458.62c-4.615.167-3.253 2.873-3.253 2.873 2.389-1.016 5.36 0 5.36 0 4.085-.503.255-2.77.255-2.77a17.23 17.23 0 0 0-2.362-.103zm-381.65 0a16.757 16.757 0 0 0-2.339.102s-3.79 2.268.25 2.77c0 0 2.943-1.015 5.302 0 0 0 1.353-2.705-3.213-2.872zm-41.63-71.69c-1.584.035-2.117.852-2.117.852 6.817 3.281 19.438 18.183 19.438 18.183 2.526-1.013 1.765-5.303 1.765-5.303-10.887-11.676-16.445-13.79-19.085-13.732zm465.35-.373c-2.64-.06-8.203 2.05-19.092 13.727 0 0-.76 4.292 1.766 5.302 0 0 12.624-14.895 19.438-18.177 0 0-.528-.816-2.112-.851zm-383.98-1.43a61.262 61.262 0 0 0 .153 4.592c.34-.012.675-.001 1.01 0-.858-.001-1.722.02-2.605.102a16.938 16.938 0 0 0 1.442-4.695zm300.95-.597c.431 1.78 1.381 3.498 2.884 5.126.309.227.567.442.874.67a48.156 48.156 0 0 0-3.951-.08c.182-2.052.264-3.898.233-5.528-.017-.062-.025-.126-.04-.188zm-317.3-45.38c-.166-.13-.61.088-1.493.909 0 0-5.554.254-12.37 25.25 0 0-1.514 9.084.505 9.338 0 0 2.776-.506 2.27-7.828 0 0 2.272-4.293 2.272 4.547 0 0 3.28 1.768 3.28-3.287 0 0-2.017-18.424 4.043-24.99 0 0 1.99-3.548 1.493-3.94zm335.31-.386c-.497.39 1.493 3.94 1.493 3.94 6.058 6.563 4.036 24.995 4.036 24.995 0 5.05 3.287 3.281 3.287 3.281 0-8.837 2.27-4.541 2.27-4.541-.503 7.322 2.272 7.822 2.272 7.822 2.018-.25.505-9.338.505-9.338-6.817-24.994-12.37-25.245-12.37-25.245-.884-.82-1.327-1.044-1.493-.914zm-376.72-64.68c-.4.845-.72 1.74-.925 2.674-2.183.538-5.99 2.012-10.485 6.08 0 0 .483-2.653 1.629-6.943 3.69.659 6.948-.121 9.781-1.81zm418.15-.374c2.834 1.689 6.094 2.469 9.787 1.81 1.146 4.292 1.63 6.943 1.63 6.943-4.499-4.068-8.304-5.545-10.486-6.085a12.497 12.497 0 0 0-.93-2.668zm-383.96-35.69c25.295 141.49 146.04 218.69 169.01 232.23-.66-.387-.474-.26-1.317-.767a181.448 181.448 0 0 1-23.473-2.577c-1.001-13.647-8.975-17.779-8.975-17.779-3.588-.176-5.716 1.625-6.971 4.048-3.553-3.905-16.638-18.2-22.066-22.98 0 0-3.787-4.542-3.787-8.078 0 0-5.706-10.035-9.088-1.243-3.793-6.45-17.243-28.22-20.704-18.706 0 0-1.764 6.82-1.005 14.396 0 0 .111 2.82.04 6.092-2.343-1.978-5.348-4.332-5.348-4.332-12.877-7.32-9.338.256-9.338.256 1.276 4.012.71 8.54.295 10.752.064.027.08.046.142.073-2.462-1.078-6.822-2.3-13.54-1.754-.858-.21-2.945-.965-3.388-2.276a1.687 1.687 0 0 1-.085-.545c0-.895.59-2.094 1.714-3.44.064-.086 1.187-1.277 4.888-.574l.29.051.3-.028c.216-.015 5.326-.6 7.25-4.797 1.593-3.48.406-8.113-3.531-13.767-.528-.601-7.42-7.918-17.478-11.104.168.053.344.098.51.153a27.809 27.809 0 0 1-.25-3.616c0-1.776.198-3.198.517-3.871.978.259 1.997.408 3.055.408 6.61 0 11.989-5.384 11.989-11.995 0-6.61-5.38-11.989-11.99-11.989-6.614 0-11.988 5.379-11.988 11.99 0 1.178.176 2.316.494 3.394-.01.005-.02.01-.029.017-.927.752-1.99 2.192-2.401 6.029.017.38.028.77.028 1.175 0-3.173-.63-5.74-.68-5.938l-.069-.25-.125-.227c-2.289-4.162-5.878-5.863-9.571-6.34.185.023.372.032.556.062.327-10.124 1.46-51.645-2.089-48.537 0 0-4.745 1.635-10.377 6.784-2.51-1.548-8.518-6.906-5.28-21.68 0 0-3.27-11.41-16.524 12.807-2.46-4.883-8.543-15.671-14.022-15.083 0 0-2.528-2.016-1.771 5.052 0 0 1.762 13.66-3.157 17.099-.474-2.558-.61-5.21-.124-7.76 0 0-.194-7.227-4.377-4.667-.788-4.095-1.143-9.92 1.413-14.993 2.225-4.42 6.368-7.595 12.285-9.474a12.541 12.541 0 0 0 7.34 2.373c6.964 0 12.625-5.662 12.625-12.62 0-6.964-5.661-12.631-12.625-12.631-1.673 0-3.262.335-4.723.93.226-.301.436-.61.653-.92 3.46-1.283 12.337-5.33 18.716-14.901 0 0 4.547-10.1 8.334-12.875l.006-.005c-.064-.348-.121-.701-.182-1.05zm348.98-.296c-.014.081-.025.164-.04.245.387.45.653.726.653.726 3.788 2.777 8.334 12.875 8.334 12.875 6.382 9.571 15.257 13.618 18.716 14.902.217.312.432.63.658.931a12.534 12.534 0 0 0-4.734-.937c-1.34 0-2.627.215-3.838.602-5.852 1.096-10.298 6.237-10.298 12.404 0 6.958 5.661 12.62 12.62 12.62 1.343 0 2.64-.212 3.855-.602a12.58 12.58 0 0 0 5.007-2.145c5.917 1.887 10.06 5.055 12.285 9.48 2.553 5.07 2.2 10.888 1.413 14.981-4.184-2.563-4.382 4.666-4.382 4.666.486 2.55.349 5.208-.125 7.766-4.917-3.442-3.156-17.104-3.156-17.104.759-7.068-1.766-5.047-1.766-5.047-5.479-.588-11.568 10.201-14.028 15.083-13.254-24.215-16.52-12.807-16.52-12.807 3.24 14.768-2.767 20.126-5.28 21.674-5.63-5.146-10.376-6.783-10.376-6.783-3.642-3.187-2.355 40.586-2.067 49.258.065-.014.129-.016.193-.029-2.764.545-5.565 1.819-8.276 4.15-.151.133-3.344 2.992-3.565 7.266-.008.159-.017.32-.017.483 0 .54.075 1.071.17 1.6-.1-.53-.17-1.06-.17-1.6 0-.163.004-.324.011-.483.008-.155.048-.294.063-.442-.336-2.37-.997-4.12-2.016-5.223.443-1.249.693-2.588.693-3.985 0-6.611-5.383-11.99-11.995-11.99-6.61 0-11.989 5.38-11.989 11.99s5.38 11.995 11.989 11.995c.432 0 .863-.023 1.283-.068l-.051.29a.62.62 0 0 1 .482.323c.83 1.321.284 5.086-.346 7.21l.295.084c-7.882 2.51-11.798 6.693-12.058 6.989-4.53 4.331-6.573 8.679-5.949 12.79.828 5.462 6.09 8.163 6.318 8.27l.647.324.71-.164c2.153-.498 3.28.323 3.327.363 1.908 1.701 2.986 3.306 2.986 4.44 0 .135-.017.253-.046.374-.325 1.354-2.555 2.34-3.746 2.68-8.94-.855-15.062 3.314-15.322 3.502-.101.083-1.08.849-2.651 2.004l4.002-3.173s-1.738-6.56 0-12.114c0 0 3.47-7.573-9.168-.256 0 0-2.943 2.343-5.24 4.32-.07-3.269.045-6.085.045-6.085.742-7.576-.993-14.391-.993-14.391-3.399-9.513-16.59 12.247-20.311 18.699-3.322-8.785-8.913 1.243-8.913 1.243 0 3.535-3.718 8.078-3.718 8.078-5.33 4.78-18.16 19.075-21.645 22.98-1.231-2.423-3.32-4.219-6.84-4.043 0 0-8.002 4.238-8.834 18.273a184.06 184.06 0 0 1-24.155 2.367c-.806.485-.625.361-1.26.733 22.82-13.437 143.92-90.748 169.14-232.56zm-353.62-55.91v3.496c0 14.882 1.076 29.18 3.054 42.906-2.333-.23-5.531-.104-9.906.557 1.816-3.99 3.253-6.87 3.253-6.87 8.08-15.482-5.047-9.763-5.047-9.763a122.25 122.25 0 0 0-4.939 2.588c.282-3.04.566-8.707-.278-15.294 0 0-2.518-10.37 3.276-14.436.814.191 1.66.301 2.532.301 3.172 0 6.029-1.345 8.055-3.485zm358.2-.785c2.037 2.59 5.19 4.263 8.731 4.263 1.048 0 2.059-.166 3.02-.437 5.377 4.219 2.952 14.198 2.952 14.198a71.389 71.389 0 0 0-.278 15.294 122.244 122.244 0 0 0-4.94-2.589s-13.124-5.719-5.046 9.764c0 0 1.442 2.88 3.259 6.87-4.893-.742-8.334-.818-10.712-.466-.008.055-.02.11-.029.164a300.361 300.361 0 0 0 3.043-42.786v-4.274zm19.08-2.833c8.533-.777 15.872 12.132 18.892 18.358-.672 1.098-.295 3.003-.295 3.003.417.739.71 1.547.908 2.401-6.58-9.028-18.674-15.563-24.229-18.234 2.077-1.228 3.733-3.097 4.655-5.353.027-.058.043-.118.068-.176zm-388.13-25.25c3.099.133 6.872 1.114 10.843 4.002v9.605c-2.027-2.14-4.883-3.485-8.055-3.485-3.757 0-7.078 1.875-9.089 4.734-2.945-.206-6.818.568-6.818.568 1.456-4.802 5.336-10.774 8.368-14.975a17.394 17.394 0 0 1 4.751-.449zm380.48-.363c1.963-.11 3.666.126 4.996.442 3.032 4.202 6.917 10.168 8.373 14.97 0 0-3.872-.768-6.818-.562-2.012-2.86-5.336-4.74-9.088-4.74-3.653 0-6.872 1.787-8.896 4.513v-9.997c4.172-3.3 8.162-4.443 11.433-4.626zM179.67 57c1.983-.037 4.12.131 6.386.596l-.352 1.952.182.909h-19.233c2.503-1.387 7.068-3.347 13.017-3.458zm192.88-1.982c5.525-.17 9.73 3.404 11.666 5.439h-17.882a9.902 9.902 0 0 0 .375-2.68l-.086-1.146c2.1-1.085 4.085-1.556 5.927-1.613zm-172.92-4.013c3.765-.113 9.04 1.309 14.595 7.789 0 0 .564.781 1.578 1.663h-11.075l.153-.908c0-3.726-2.137-6.956-5.25-8.544zm152.54-5.813c2.86-.197 4.414 1.56 5.149 2.81l-.454-.068c-5.429 0-9.85 4.416-9.85 9.844 0 .912.125 1.812.37 2.68H329.15c7.202-4.65 16.349-12.269 16.349-12.269 2.764-2.056 4.953-2.878 6.67-2.997zM306.35 1.527c-2.148-.163-2.322 3.302-2.288 4.934-2.24 1-6.993 2.318-11.07-1.948 0 0-5.806-2.523-3.786 6.313 0 0 .68 4.397 2.867 8.209-8.886.21-17.508-1.902-17.508-1.902-9.594-.756 3.536 10.355 3.536 10.355a63.25 63.25 0 0 0 3.594 3.452c-5.28.904-15.733 3.17-7.386 5.886 0 0 12.622 3.791 17.167 12.625 0 0 8.84 7.574 16.162 5.303 0 0-2.536 1.069-2.384 5.705h-50.723c-.254-2.103-1.33-5.154-5.268-6.59 1.578-.473 3.124-1.08 4.598-1.891 0 0 15.15-3.03 19.948 2.526 0 0 6.559 2.27 3.026-5.052 0 0-6.543-10.406-19.005-12.932 2.815-1.762 6.38-5.501 6.38-5.501 6.564-7.068.506-7.823.506-7.823-3.533 1.518-9.339-.76-9.339-.76-14.898-9.34-29.023-5.808-29.023-5.808v-1.765c-.76-12.623-6.568-5.552-6.568-5.552-.756 4.04-5.807 4.797-5.807 4.797-15.15 4.543-18.427 13.38-18.427 13.38-2.52 6.564-8.334 8.834-8.334 8.834-9.765 1.884-15.8 4.929-18.677 6.693a10.287 10.287 0 0 0 1.005-4.422c0-5.707-4.643-10.35-10.355-10.35-5.706 0-10.349 4.643-10.349 10.35 0 4.012 2.295 7.489 5.637 9.208-1.99 2.839-7.067 9.382-13.602 12.659h-5.892c-.008-3.865-.52-13.552-5.33-16.56 0 0-1.77-.506-3.538 3.786 0 0-6.451 9.35-11.796 12.773H102.621V74.685c-1.766 1.23-3.719 3.168-5.62 6.273-2.696-3.286-5.217-5.5-5.217-5.5-7.574-3.533-6.312 1.515-6.312 1.515C88.248 83.79 83.2 92.625 83.2 92.625c-4.597 4.704-6.423 11.894-7.01 18.626-4.275-3.41-11.673-3.23-11.673-3.23-14.894 2.274-5.552 7.329-5.552 7.329 6.06 4.038 6.313 12.875 6.313 12.875 1.436 9.852 8.545 12.69 11.155 13.409-2.446 9.895-10.655 18.398-10.655 18.398-.906-2.173-3.363-4.727-4.684-6-1.083-5.724-6.115-10.071-12.148-10.071-6.82 0-12.37 5.55-12.37 12.37 0 6.821 5.55 12.37 12.37 12.37 2.233 0 4.4-.602 6.29-1.72 5.375 13.355-1.401 22.228-4.484 25.365-1.389-2.41-3.065-4.348-4.973-4.735-.313-5.666-2.405-22.107-16.1-28.333 0 0-10.605-.504-2.276 9.844 0 0 3.285 13.133-1.26 19.188 0 0-2.457 4.486-2.117 9.077a22.676 22.676 0 0 0-3.435-1.504s-4.295-.504-1.266 8.333c0 0 1.517 15.145-.505 21.963 0 0-.286 4.922.96 11.95-4.268-1.527-8.277-.329-8.277-.329-13.13 2.777-8.84 8.833-8.84 8.833 8.332 4.29 11.36 13.13 11.36 13.13 7.052 19.017 20.614 20.49 24.615 20.494.08 6.078.687 12.807 2.486 18.716 0 0-3.664-2.913-9.105-3.576-1.885-4.608-6.408-7.863-11.683-7.863-6.962 0-12.62 5.657-12.62 12.62 0 6.96 5.658 12.625 12.62 12.625 4.027 0 7.617-1.906 9.928-4.853 3.023 1.05 13.178 5.565 15.93 19.398-8.323-5.752-16.265-6.716-16.265-6.716-11.612-2.78 1.516 17.417 1.516 17.417.363 1.01.693 2.052.994 3.105-2.063.447-7.062.55-13.363-6.136 0 0-6.82-7.066-5.558 7.073 0 0-.709 8.561 11.944 30.07-1.575.121-3.195.277-4.87.478 0 0-11.11 6.817.754 8.078 0 0 16.41 5.557 21.46 21.714 0 0 9.337 11.198 17.251 13.852l-1.027.97-.16.284c-.095.186-9.377 17.898 10.373 31.904.384.218 4.125 2.232 8.89 2.98-.08-.012-.17-.008-.25-.022-2.562.703-4.275 1.283-4.275 1.283-12.622 8.078-1.515 11.11-1.515 11.11 3.786-.254 11.865 4.042 11.865 4.042 6.816 7.068 9.088 3.53 9.088 3.53-.251-5.806-12.364-9.593-12.364-9.593-8.332-1.513-7.073-2.776-7.073-2.776 9.09-7.066 22.219-4.541 22.219-4.541 6.817-3.033-.256-5.303-.256-5.303-1.48-.24-3.185-.262-4.978-.142-.04.029-.084.047-.125.074a14.99 14.99 0 0 0 1.47-1.112l7.153-8.63c1.363.235 5.972 1.491 7.59 7.84l-8.356 9.606-.12.25c-.133.276-2.253 4.867-2.253 10.712 0 2.786.483 5.855 1.89 8.878 2.968 6.372 9.252 10.861 18.677 13.346.12.035 9.035 2.31 18.33 10.894 1.618 1.204 146.07 104.49 303.47-6.647l.205-.142.17-.205c.143-.163 3.59-4.04 12.83-4.331l.272-.005.261-.085c.434-.133 10.616-3.373 14.647-12.597 1.067-2.438 1.601-5.039 1.601-7.8 0-3.93-1.079-8.185-3.241-12.705l-.108-.227-.165-.199c-.448-.533-4.32-5.135-9.474-11.161 1.079-1.99 3.403-4.905 7.885-5.603l5.7 7.204c1.033.976 2.423 1.974 3.996 2.872-.174-.099-.382-.176-.55-.278-1.48-.058-2.884-.008-4.128.193 0 0-7.15 2.27-.26 5.302 0 0 13.267-2.524 22.451 4.542 0 0 1.28 1.263-7.136 2.776 0 0-12.255 3.787-12.506 9.594 0 0 2.298 3.537 9.185-3.531 0 0 8.164-4.296 11.99-4.042 0 0 11.224-3.031-1.533-11.11 0 0-1.573-.528-3.957-1.187-.113.028-.223.038-.335.063 3.049-.679 6.199-2.271 9.253-5.257.262-.183 10.453-8.174 11.32-18.859.346-4.308-.887-8.4-3.622-12.205 8.129-1.852 18.405-14.186 18.405-14.186 5.051-16.16 21.46-21.714 21.46-21.714 11.865-1.261.76-8.078.76-8.078a118.082 118.082 0 0 0-4.87-.477c12.65-21.506 11.937-30.071 11.937-30.071 1.263-14.141-5.552-7.068-5.552-7.068-6.301 6.682-11.3 6.575-13.363 6.126.3-1.05.63-2.084.994-3.094 0 0 13.122-20.197 1.51-17.422 0 0-7.94.965-16.264 6.721 2.372-11.91 10.226-16.907 14.294-18.739a12.598 12.598 0 0 0 9.713 4.57c1.199 0 2.352-.18 3.452-.494 6.205-.789 11.024-6.079 11.024-12.506 0-6.958-5.662-12.625-12.62-12.625-1.2 0-2.357.18-3.458.494-4.548.58-8.347 3.587-10.054 7.68-4.42.993-7.272 3.27-7.272 3.27 1.798-5.912 2.402-12.635 2.481-18.715 4.004-.005 17.558-1.488 24.61-20.5 0 0 3.033-8.835 11.364-13.124 0 0 4.29-6.065-8.839-8.84 0 0-4.013-1.195-8.282.33 1.244-7.025.96-11.944.96-11.944-2.02-6.817-.506-21.963-.506-21.963 3.03-8.837-1.26-8.333-1.26-8.333-1.179.399-2.326.908-3.44 1.504.34-4.591-2.118-9.077-2.118-9.077-4.543-6.059-1.26-19.188-1.26-19.188 8.331-10.35-2.27-9.844-2.27-9.844-13.693 6.224-15.793 22.667-16.107 28.333-1.907.387-3.579 2.327-4.967 4.734-2.999-3.047-9.486-11.527-4.899-24.274a12.426 12.426 0 0 0 8.271.523c6.078-.774 10.803-5.973 10.803-12.262 0-6.817-5.553-12.375-12.37-12.375-1.176 0-2.31.176-3.389.482a12.29 12.29 0 0 0-7.215 3.525 12.354 12.354 0 0 0-3.605 8.124l.08.005c-1.076 1.216-2.168 2.643-2.708 3.94 0 0-8.204-8.498-10.65-18.393 2.61-.719 9.719-3.566 11.155-13.42 0 0 .252-8.834 6.313-12.874 0 0 9.343-5.046-5.552-7.318 0 0-7.406-.183-11.677 3.225-.588-6.732-2.409-13.92-7.006-18.626 0 0-5.051-8.837-2.276-15.652 0 0 1.268-5.049-6.307-1.516 0 0-2.52 2.22-5.217 5.506-2.207-3.605-4.488-5.657-6.46-6.823V60.463H439.11c-2.13-4.221-9.531-8.986-9.531-8.986-5.808-1.77-12.114-7.573-12.114-7.573-4.042-5.556-6.568-4.042-6.568-4.042-5.553 1.515-2.776 9.844-2.776 9.844 2.947 3.64 3.634 8.237 3.775 10.758h-2.356c-1.35-3.667-5.956-6.476-5.956-6.476-19.17-6.814-21.19-17.922-21.19-17.922-.025-.983-.182-1.801-.432-2.487l1.192-1.555a10.089 10.089 0 0 0 1.51-5.303c0-5.565-4.528-10.099-10.099-10.099-5.57 0-10.099 4.534-10.099 10.1 0 2.329.815 4.509 2.197 6.255-7 .818-16.09-5.496-16.09-5.496-6.56-12.624-21.7-16.412-21.7-16.412-8.34.505-18.18-6.562-18.18-6.562-1.95-2.086-3.34-2.911-4.32-2.986z"/><path fill="#a51c30" d="M108.04 65.907H455.4v119.4c0 184.27-166.52 277.85-173.68 281.77-7.147-3.935-173.68-97.51-173.68-281.77v-119.4z"/><path fill="#101820" d="M242.73 109.05c-1.85-.04-3.404 2.16-5.126 3.014-9.011 4.139-18.29.898-28.42 2.26l-7.612 2.566c-2.074-.234-3.654-1.654-5.728-1.885-7.39 0-14.358-1.358-21.709-.227-5.538-.87-11.044-1.584-15.453-4.826-2.973-.233-2.758 3.961-5.506 4.145-2.075 0-4.192.679-6.256.227-2.76-.234-5.09 1.166-6.256 3.241l-.676 13.568c0 .945-.677 2.078-1.584 2.339-5.317.231-11.583-.536-13.647 5.274-.453 2.528-1.162 5.737.682 7.84 3.01 2.98 7.608 3.245 11.757 3.014 3.01.453 2.339 3.88 2.339 5.955.49 11.528-.908 22.616 0 34.827-1.361 5.993-8.976.488-12.438 4.144-1.4 1.855-2.572 4.19-2.34 6.484-.232 3.244.687 5.988 4.15 7.385 3.473 1.352 7.424.26 10.627 2.112 1.621 5.307-1.13 12.634 2.334 17.718 1.851 1.623 4.112 2.102 6.409 2.333 7.159 0 13.878 1.175 20.806-.448 7.167.223 14.466-.901 21.635.227 1.842.716 4.413.453 5.126 2.787 3.203 2.076 7.391 3.66 11.308 1.584 2.075-1.842 3.427-4.376 5.955-5.052l11.53.454c3.203-1.397 7.129-.907 10.332-.454 5.992.223 12.025.223 17.786 0 2.982-.453 6.22-.746 8.749-2.56 3.463-6.252-1.209-13.61 2.486-19.603 3.695-.904 7.844 1.132 10.854-1.657 2.528-2.073 3.547-5.05 3.094-8.294-2.074-4.822-7.65-5.505-12.29-5.274-2.075-.453-2.498-2.748-2.942-4.371-.492-10.36.158-19.637.38-29.775 1.14-3.244-.903-6.221 1.431-8.97 3.425-2.528 8.521-.232 11.308-4.15.184-2.568 1.389-6.743-1.13-8.816-2.305-2.52-6.03-2.26-9.048-2.26-6.667-4.864.23-11.8-3.696-17.791-2.971-2.752-7.647-2.938-11.303-2.038-2.518-.184-4.334-2.303-5.955-4.144-.687-.634-1.347-.89-1.964-.903zm163.13.75c-.261.022-.525.138-.829.226-10.584 8.247-25.816 1.843-38.29 4.826-1.4.221-2.308 1.847-4.15 1.357-9.687-5.28-21.452-.463-31.58-2.94-4.41-.272-8.38-4.45-12.519-2.113-1.851 6.405-9.424 1.32-13.795 2.94-7.612 3.202-2.527 11.505-3.916 17.719-2.567 4.862-9.049.3-12.512 4.218-1.852 1.39-2.492 3.662-2.714 6.182.454 8.97 11.309 3.928 15.68 8.521-1.13 5.536.674 11.34-.454 16.202-.676 8.066 1.39 15.908.454 23.52-3.927 4.149-12.437-.257-14.55 6.41-1.814 2.789-.033 5.762 1.357 8.288 3.02 2.558 6.933 3.017 11.08 2.793 3.918 3.696 1.663 9.457 1.886 14.55.453 1.804-.491 3.653 1.13 5.274 4.824 1.623 10.17 1.658 15.225 1.658 11.297 0 21.452-.026 31.813.454 5.316-1.387 8.547 4.15 13.642 4.371 4.823.686 5.544-6.001 10.406-4.825 0 0 23.52.23 23.52.227 4.602.261 9.16-.26 13.568.454 4.563-.945 10.104.893 12.892-2.793 1.582-5.315.902-10.845 1.578-16.355 1.399-4.631 7.619-1.63 10.86-3.696 2.528-.945 4.145-3.2 4.599-5.728.936-3.463-1.356-6.03-3.469-8.368-2.75-1.58-5.728-.68-8.748-1.357-1.843-.49-2.483-2.334-2.714-3.917.231-6.714-.944-14.06.454-20.505-.453-5.535-.713-10.893 0-16.208l.903-1.357c3.695-.937 8.066.49 10.854-2.259 1.843-2.558 3.204-6.035 1.584-8.822-1.398-5.538-7.608-4.106-11.757-4.82-3.918-1.844-1.807-5.995-2.038-9.196 0-3.02 1.329-7.2-2.106-9.504-3.01-1.351-6.67-.568-9.651-.374-4.306 1.058-3.773-5.402-7.692-5.053zm-181.6 157.55c-2.112.334-2.627 4.212-4.672 4.978-4.641 1.583-10.397-1.36-14.323 2.333-2.297 4.825.447 10.365-.681 15.68-.676 3.244-4.602 1.807-7.159 2.038-3.917 0-7.814.933-9.878 4.144-.686 2.066-.94 4.376-.448 6.71 2.074 4.594 7.84 4.376 12.21 5.28 1.622 0 3.43-.41 4.6.977.674 6.676.22 12.933.453 19.375-.946 4.372.221 9.648 0 14.249-.232 1.844-.723 3.954 0 5.574-.232 1.39-.417 3.01-2.038 3.242-3.241.455-6.975-.94-9.724.681-2.297.716-3.881 2.747-4.826 4.82-.453 2.075-.492 4.41.454 6.261 3.425 4.141 8.744 3.248 13.568 3.69 4.862 1.169 2.57 7.388 3.015 11.081l.454 7.613c1.398 4.825 7.386 3.466 11.08 4.826l7.84-.903c5.096 1.4 11.045-.949 16.129.227 5.77-1.62 11.948-.681 18.393-.681 3.926-.259 8.068-.294 12.217-.528 3.464 2.347 7.2 5.312 11.609 3.923 3.656-3.202 8.937-3.89 13.568-3.168l9.724-.528 1.806.755 11.763-.454c7.168.234 14.546-.753 22.39-.301l6.704-.454 5.955-1.578c4.149-3.915 1.442-10.372 2.339-15.458.723-1.852.19-4.371 2.486-5.047 4.863-.714 11.341-.22 13.193-5.807.483-2.257.713-4.86-.454-6.705-2.074-2.294-4.598-3.246-7.385-3.922-2.75.454-6.674.716-8.294-1.811 1.167-13.825-.447-25.593.68-39.42 0 0 1.585-2.109 1.585-2.111 4.592-.945 10.405-.232 12.739-5.28.907-2.294.19-5.083-1.43-7.158-2.75-5.094-9.425-.903-13.12-3.923-2.297-4.852 1.389-10.135-.454-15.453-3.02-5.277-9.678-3.469-14.771-3.469-2.75-2.256-6.25-2.713-9.725-3.389-5.045 3.166-11.05 4.073-17.263 4.07-7.62.9-15-.906-22.39-.454-4.408-.23-9.423-.675-12.665 2.788l-5.801-2.56c-14.274-2.302-29.441 3.464-43.265-1.593l-4.372-2.788c-.693-.387-1.323-.455-1.81-.38z"/><path fill="#fff" d="M239.41 115.76c-5.085 3.163-12.024 3.62-18.237 3.168-4.602.231-9.879-.414-14.248.755-3.917 1.128-3.503 5.652-4.448 8.896.945 5.093-.004 10.923-.225 15.978-.232 18.464-.196 37.986.75 56.684.454 3.233-2.79 7.658.905 9.045 9.454-1.62 19.798-.98 29.476-.98l5.577-1.354c2.972-1.852 2.07-5.998 2.264-8.75-.453-13.601-.225-25.889-.225-39.947.868-9.232 0-17.975 0-27.438-.482-5.086.901-9.424.225-13.794.222-1.362-.67-2.073-1.81-2.264h-.004zm83.901.225c-2.074 1.166-1.584 4.411-1.584 6.487v23.894c-1.177 17.298.447 33.73.225 50.807-.222 3.203-1.167 5.76 0 8.741 3.202 3.244 8.555 2.117 12.664 3.014 1.843-.221 3.919-.902 6.032-.45 4.592 0 8.713-.26 13.344.23 1.36.223 3.438 1.13 4.827 0 .231-6.705-.23-12.248.446-18.472-.222-3.693.23-6.971.23-10.63-.908-13.149.482-26.957 0-40.327.713-6.485.722-12.466-1.13-19.142-1.167-2.52-4.108-1.816-6.182-2.268-6.937 0-14.136 1.58-21.035 0-2.297-1.362-5.05-1.625-7.837-1.884zm78.924 0c-10.169 4.59-22.613 1.853-33.699 2.943-1.843.453-3.69 1.848-4.144 3.923-.443 24.002-1.175 44.059-.229 68.294-.222 6.214-.907 11.949-1.13 18.392 1.844 2.568 4.639-.91 7.167-.68 7.612-.904 15.904.9 23.969 0 3.232 0 7.346.048 8.745-2.713-.23-13.37.867-27.287.221-40.177 1.36-15.446-.453-32.044.455-47.943 0-.907-.217-2.035-1.355-2.035v-.005zm-238.89.984a3.405 3.405 0 0 0-1.66.375c-1.166.945-1.362 2.342-.908 3.694.491 4.407-.457 9.427.23 13.569-.908 9.231-.222 17.985-.676 27.438.231 12.214 1.12 26.998.446 39.656.945 1.623-.9 3.502.684 5.123 2.788 2.972 8.063 2.479 11.98 2.034 8.297.444 16.13.05 23.974 2.113.713 0 1.126-.935 1.359-1.659-1.4-6.666-.191-12.444-.905-19.15l.45-22.316v-4.368c.897-13.873.221-26.045 0-39.193l-1.584-3.469c-2.528-1.361-5.314-2.493-8.516-2.038-1.169.22-2.333 1.132-3.694.68-5.278-.224-11.273.905-16.358-1.13-1.73-.169-3.228-1.3-4.823-1.355v-.005zm82.935 1.655c-.269.01-.515.032-.83.15-.907 1.35-.443 3.356-.22 4.977-.676 14.78-.007 30.227-.23 44.775 0 12.214.007 23.07-.225 35.274 1.128 2.752 1.852 5.994 4.823 7.391.685 0 1.055-.677 1.055-1.584v-24.044c0-19.149.684-38.974 0-58.114.453-1.583-.148-3.851-1.055-5.432-.59-1.19-1.441-3.476-3.318-3.393zm163.05.53c-.254-.038-.584.016-.905.074-1.128.26-.907 1.392-1.13 2.339-.453 8.702.908 16.236 0 24.794-.23 18.426-.224 36.489-.224 55.405-.714 3.435.947 6.442 3.243 8.746.724.9 1.847.9 2.484.225 1.129-5.99-.636-12.468.455-18.692.222-7.649-.679-14.103-.225-21.485.443-15.222.679-30.15.225-44.7l-.91-2.714c-.987-1.384-1.236-3.742-3.013-3.993zm-253.5.502a1.389 1.389 0 0 0-.388.022v.005c-2.79 1.176-3.474 4.337-4.148 6.858v29.772c-.946 13.614.677 27.406-.23 40.786-.261 4.864.454 9.278 0 13.869.454.947-.494 3.018 1.36 3.239 4.592-2.787 4.597-8.553 3.922-13.648 0-7.612-.182-17.035.3-24.65 0-10.138-.482-19.638 0-29.546-1.167-6.938.646-14.697 0-21.856-.936-1.139-.521-2.34.155-3.469-.17-.398-.187-1.31-.971-1.381zm160.1.622v.005c-.675-.008-1.158 1.377-2.034 1.885-2.528 5.093-1.126 9.878-1.58 15.678.231 18.878-.503 36.929.22 56.985-.945 5.085.687 9.918-.22 15.232.231.716-.005 2.258 1.355 2.034 2.296-.452 2.297-2.977 3.464-4.598.231-18.466.452-36.638.23-54.43 1.127-7.835-.452-15.716.224-23.29 0-2.973.001-6.147-.904-8.896-.292-.407-.53-.604-.755-.604zm-72.142 90.46a3.943 3.943 0 0 0-1.2.074c-7.343 3.465-16.775 2.501-24.878 2.944-3.425.947-6.42-1.35-9.65 0-.908.492-2.525 1.43-1.81 2.788 2.296 4.141 6.863 1.096 10.78 1.81 5.77 0 10.14-.257 15.678-.45h14.098c.945 0 2.038-1.132 1.584-2.039-1.611-1.61-2.163-4.828-4.602-5.127zm76.29.229c-1.36 1.168-3.389 2.302-3.389 4.143 0 1.131 1.084 1.663 2.03 1.885l24.649-.226c4.592-.49 8.752 2.078 13.123.91 1.167-1.398.713-2.745-.455-3.923-5.084-1.805-12.408-.681-18.167-.905-6 .455-12.033-1.16-17.792-1.884zm84.206.225c-5.992 2.075-12.896 2.337-19.601 2.114-5.77 0-12.396-1.396-17.712 1.13-.222 1.13.225 2.748 1.355 3.238h40.63c1.351.455 1.809-1.202 1.355-2.11-1.583-2.072-3.24-4.372-6.027-4.372zm-244.26.207a3.613 3.613 0 0 0-.662.022c-2.074.948-3.472 2.74-3.693 5.044.22 2.066 3.287 1.217 4.677 1.439 11.268 1.4 22.991-1.169 34.3.904 1.35-.231 1.358-1.62 1.358-2.568-.445-1.62-2.31-1.804-3.698-2.26-8.972-.904-19.378.68-28.572-.904-1.19-.59-2.234-1.585-3.71-1.677zm172.73 62.262a8.205 8.205 0 0 0-.988.027c-.443.033-.867.07-1.205.07-4.862 2.712-10.891 3.44-16.883 3.169-7.843.492-15.386-.9-23.219-.9-3.02 1.168-7.882-.235-8.596 3.913a228.294 228.294 0 0 0 0 17.792c1.62 4.373 3.012 8.968 4.373 13.57.945 7.613 5.314 13.87 6.028 21.48 0 4.19 5.503 4.602 5.957 8.296-1.843 2.752-5.952.899-8.971 1.13-1.35 0-3.015-.195-3.468-1.584 1.398-3.915.491-8.512-1.805-11.755-.685-.453-1.66-1.135-2.114-.23-1.852 4.372-.236 8.972-.68 13.794.444 6.262.68 10.891.226 17.112 1.62 3.244-1.167 6.45 0 9.65 3.464 1.39 5.576-2.25 9.05-1.809l26.908.225c5.316.184 11.044-.262 15.453-3.013 2.035-2.518.68-6.176 1.134-9.196-.676-11.981.685-23.064 0-35.058.685-15.446-1.85-29.813.225-45 .254-1.291-.481-1.632-1.425-1.681zm-106.24.552c-1.4.716-.445 1.817-1.13 2.714 1.582 9.686.452 20.495.23 30.45.675 19.364.223 37.396.454 56.315l1.355 1.58c3.918 2.52 9.161 2.338 14.023 2.338 5.093-.23 10.368.23 15.453.23l8.066-.23c3.695-.673 7.16 1.17 10.855.455 1.351-.453 1.13-2.113 1.13-3.244.454-6.028-.46-13.154-.23-19.146-.453-6.028 1.39-11.53-.454-17.262-.907-.713-2.3-.259-3.014.455-2.971 3.203-1.808 7.846-1.354 11.985-.232 1.138-1.165 1.813-2.564 1.58-2.074.233-5.085.455-6.937-.676-1.39-2.786 2.373-3.2 3.773-4.823 3.464-9.452 4.603-19.644 8.066-29.33 1.843-5.536 2.26-11.79 2.26-17.784-.678-4.36 2.323-10.135-2.944-12.655-12.708-2.75-25.63.897-38.518-.454-2.752-.904-5.28-2.252-8.52-2.484v-.014zm112.7 2.789-1.13 1.354c-.26 5.762-.492 12.172 0 17.942v13.42l-.229 8.066c-.231 12.697-.03 28.382.23 41.31-1.4 4.373 1.126 8.25 3.693 11.23.453.493 1.39 1.173 1.805.226l.454-26.458c0-20.087.449-41.531-.68-62.037-.907-1.852-2.29-4.146-4.143-5.053zm-119.63 1.809c-1.167 1.583-2.79 3.43-3.243 5.502-.454 25.095 0 50.737 0 76.815l-.225 9.196c0 .716.678 1.21 1.354 1.21 2.788-2.295 4.603-6.03 3.919-9.726 0-26.53.002-50.956-.22-75.61-.908-2.518 2.293-6.71-1.585-7.387zm57.139 33.774c-.196.03-.443.145-.68.37-.675 3.466-2.977 7.423-1.134 10.856.714.676 2.08.461 2.264-.446l.76-9.425c-.174-.702-.62-1.438-1.21-1.355zm4.823 8.366c-.082-.007-.152.038-.225.075-.195.1-.317.383-.375.9 0 .724-.267 1.818.9 1.585.454 0 .462-.442.684-.676.298-.738-.414-1.83-.984-1.884zm-56.918 47.56c-2.528 1.399-4.099 3.432-5.044 6.181 0 1.169 1.346.984 2.03.984 4.178-.944 8.787.679 13.12.455l37.387.22 1.584-.904c.454-.713.983-1.663.53-2.339-1.852-1.62-4.87-1.354-7.166-1.354-11.761 0-23.975.45-35.504-.45-2.528-.684-4.41-2.339-6.937-2.794zm110.51 0c-.756-.012-1.58.403-2.56 1.438-10.814 3.01-22.165 1.362-33.473 1.805-4.602 0-9.652-.854-13.57 1.209-.945 1.14.193 2.447 1.36 3.168 8.52-.231 17.327.445 25.624 0 8.51 0 16.32-.49 24.878 0 1.128-.231 3.472-.194 3.018-2.039-1.555-1.729-3.01-5.537-5.277-5.582zm-217.76 5.528c-4.18.164-8.145 1.795-8.838 2.092-.033.03-.246.224-.596.556l-.022.022-9.404 8.861c-12.286 11.58-35.806 33.745-36.228 34.15-.358.715-1.751 3.758-1.751 8.052 0 5.196 2.118 12.064 10.833 18.251.11.063 10.99 5.946 17.659.137l35.672-43.076c.1-.118 10.21-11.846 23.969-.318.982.741 3.865 3.133 3.865 5.759 0 .349-.045.7-.154 1.05-.807 2.563-3.937 3.07-6.425 3.186-.64.276-4.763 2.136-8.42 6.076 0 0-35.38 40.68-35.804 41.16-.256.584-1.765 4.208-1.765 8.804 0 2.277.386 4.766 1.51 7.166 2.446 5.222 7.84 8.962 15.996 11.115.4.095 9.97 2.5 19.905 11.69 1.418 1.042 143.56 102.57 298.54-6.796.841-.907 5.137-4.919 14.994-5.384.243-.088 8.85-2.91 12.095-10.365.829-1.902 1.24-3.954 1.24-6.155 0-3.282-.935-6.89-2.772-10.78-2.984-3.55-6.753-7.99-10.754-12.655l-.128-.04a.996.996 0 0 1 .023-.084c-10.816-12.614-23.314-26.828-26.754-29.503-.018-.018-1.99-1.664-5.675-2.996-2.081-.14-7.304-.82-8.154-4.276a3.684 3.684 0 0 1-.12-.918c0-3.093 3.817-5.8 7.264-7.859.11-.062 11.226-6.421 23.06 3.773l31.612 39.912c.425.402 10.625 9.623 20.867-.375.086-.068 9.232-7.258 9.942-16.15.331-4.108-1.235-8.031-4.55-11.592l-36.947-35.178c-.254-.264-3.313-3.457-7.66-5.485a19.626 19.626 0 0 0-2.189-.86c-4.071-1.334-8.914-1.321-13.582 2.691-.02.019-2.078 1.913-2.197 4.466-.078 1.586.626 3.195 1.77 4.497 3.396 2.414 5.025 3.813 5.696 4.836 2.525.442 6.993.37 6.261-5.966 0 0 .17-3.201-2.528-2.696 0 0-4.164-2.357 3.032-2.988 0 0 12.624 4.424-3.155 14.897 0 0-1.795 1.36-6.906-.04-19.587-3.088-28.442 6.634-28.938 7.184-3.242 3.109-4.942 6.064-4.942 8.592 0 .266.027.53.057.78.403 2.74 2.761 4.435 3.694 5.018 3.565-.49 5.674 1.1 5.943 1.328 3.494 3.116 4.93 6.105 4.245 8.856-1.017 4.136-6.275 5.566-6.875 5.715l-.353.088-.375-.035c-7.651-.902-13.026 2.724-12.947 2.652-1.064.882-107.84 87.495-234.54-.856-.037-.033-3.975-3.199-13.644-2.3l-.313.027-.3-.062c-.532-.12-5.22-1.231-6.509-4.973-.819-2.38-.03-5.032 2.22-7.713.223-.34 2.376-3.152 8.41-2.18.368-.048 2.998-.491 3.888-2.467.207-.457.304-1 .304-1.601 0-2.04-1.163-4.816-3.331-7.952-.144-.156-14.212-15.414-30.654-10.127-1.537.664-3.332.986-5.375.953h-.018c-.23-.002-.452.012-.688-.005l.005-.097c-2-.377-7.786-2.102-9.655-9.58 0 0 .504-5.893 5.724-6.146 0 0 4.968 1.183 2.36 2.952l-.176-.084s-3.7-.923-2.268 3.786c0 0 .962 4.798 5.674 5.127.99-.053 1.866-.223 2.621-.525a2.164 2.164 0 0 0-.04-.11c.095-.033.179-.018.274-.053.772-.35 1.47-.79 1.995-1.42 1.388-1.682 1.8-4.248 1.8-6.602 0-1.89-.272-3.583-.512-4.616-1.674-2.869-4.437-3.956-7.303-4.17a16.083 16.083 0 0 0-1.791-.03l.009-.019zm18.577 27.69c-4.708.17-7.65 3.369-8.124 3.926l-25.929 31.272c2.742 1.02 5.962 3.338 7.824 7.736l24.83-28.545c4.632-4.988 9.934-7.144 10.158-7.233l.331-.127.349-.014c2.016-.073 2.671-.326 2.96-.477-.26-.567-1.15-1.588-2.17-2.351-3.946-3.308-7.404-4.29-10.229-4.188zm290.28 1.138a15.02 15.02 0 0 0-1.297.026v-.005c-3.32.204-5.519 1.428-5.688 1.527-4.483 2.676-5.129 4.009-5.23 4.298.465.545 2.76 1.18 4.81 1.288l.296.018.27.098c4.614 1.633 7.046 3.756 7.046 3.764 3.7 2.88 16.335 17.287 26.11 28.664 1.472-2.207 3.931-4.712 7.867-5.896l-23.04-29.17c-4.075-3.493-7.983-4.554-11.12-4.629z"/><path fill="#ad8b3a" d="M308.37 7.303c-1.325.13-3.5 1.08.287 6.57 0 0 1.048 1.283 3.539 2.657 5.137.61 24.607 3.788 31.81 17.54 0 0-.001.115-.008.296.463.593.99 2.018 1.518 5.008 0 0-6.401-.588-12.792 3.018 9.047-.907 7.744 2.282 7.744 2.282-10.606.253-21.207 12.373-21.207 12.373-2.945-5.023 2.071-9.691 5.511-12.126-8.213.934-24.234.729-39.643-11.111-9.53-.508-7.272 2.28-7.272 2.28 4.038.503 7.824 3.54 7.824 3.54 9.846 12.119 23.48 11.866 23.48 11.866 8.33-.505 5.807 1.01 5.807 1.01-2.755 2.24-4.688 5.878-5.64 7.974h14.183c4.4-2.606 17.402-10.585 20.744-15.806 0 0 11.105-6.561 19.186 1.266 0 0 1.013 6.818 8.587 6.059 0 0 13.616-.904 17.39 8.48h15.704c-1.516-1.635-4.745-4.422-11.385-7.973 0 0-13.633-7.077-14.39-15.66 0 0-5.805-3.027-6.31 1.518 0 0 .752 7.32-5.812 1.01 0 0-1.76-1.766-9.84-4.796 0 0-8.842-1.766-15.66-11.362 0 0-7.823-8.835-18.93-10.096 0 0-9.092-1.513-13.635-5.807 0 0-.348-.052-.79-.009zm-15.42.61c-.654-.063-.455 1.416-.455 1.416.166 5.311 4.037 7.778 6.672 8.851 1.402-.532 5.004-1.794 8.327-2.025a13.383 13.383 0 0 1-2.842-5.114c-3.529 1.063-9.38-.702-9.38-.702-1.232-1.8-1.93-2.39-2.322-2.427zm-71.511 6.499c-.852-.03-2.304.6-4.7 3.248 0 0-3.032 2.023-7.073 1.77 0 0-10.352 3.283-14.645 16.158 0 0-2.775 4.037-15.652 6.054 0 0-5.803 3.033-10.096 5.556 0 0-4.04 2.562-3.486-.627a10.303 10.303 0 0 1-6.614 2.396c-.28 0-.552-.02-.825-.04-.707 5.46-7.06 9.553-10.9 11.553h12.039c6.304-8.936 27.208-5.953 27.208-5.953 7.323-2.02-2.529-3.283-2.529-3.283-9.34.251-4.033-3.032-4.033-3.032 2.527 1.513 9.593.248 9.593.248 4.088-1.053 7.26-1.57 9.725-1.757 1.487-1.261 3.49-2.155 5.653-2.793-.585-.362-.428-.277.018-.009 6.288-1.847 13.89-1.496 13.89-1.496 13.886-3.027-19.948-4.042-19.948-4.042 1.884-1.329 5.468-1.784 8.9-1.875 8.897-6.825 22.407-8.225 22.407-8.225 17.67.759 18.683 7.828 18.683 7.828l-.027.084a30.273 30.273 0 0 1 2.194-.155c3.323-.942 7.723-2.847 8.94-6.49 0 0 1.012-2.022-4.29-2.022 0 0-3.788-2.273-6.817-4.545 0 0-19.949-9.592-43.177 10.1 0 0-2.022.252 3.53-5.555 0 0 6.317-4.795 10.86-7.32 0 0 4.542-2.523 2.272-5.049 0 0-.247-.694-1.095-.728h-.005zm90.084 5.98c-4.158-.034-8.957.486-14.491 1.813 0 0-9.854 2.778-18.436-.503 0 0-4.54 1.767 7.577 8.08 0 0 27.732 22.601 50.25 5.537-4.933-2.274-16.335-6.393-27.022-2.003 0 0-.23-8.713 24.318-4.303-3.067-3.422-9.723-8.523-22.195-8.622zm63.017.3c-3.337 0-6.063 2.718-6.063 6.058 0 1.957.949 3.741 2.48 4.867 2.044-.729 5.494-1.658 8.07-.821l.671-.87c.593-.954.9-2.05.9-3.176a6.063 6.063 0 0 0-6.058-6.059zm-24.397 6.12.057.057-.03-.058h-.027zm.057.057c.12.212.24.42.353.64 0 0 .324.223.896.582L350.2 26.87zM234.91 30.54c-11.932.376-17.19 4.305-19.07 6.244.403.04.635.061.635.061 12.369-.505 14.64.764 14.64.764-1.766 6.312-11.106 6.808-11.106 6.808-5.155.405-8.243 1.338-10.096 2.308 8.082 3.558 21.203.22 21.203.22 6.31-5.047 12.373-8.079 12.373-8.079 7.827-3.786-8.578-8.326-8.578-8.326zm-75.747 1.765c-3.479 0-6.31 2.828-6.31 6.305 0 3.48 2.832 6.32 6.31 6.32 3.482 0 6.31-2.84 6.31-6.32a6.313 6.313 0 0 0-6.31-6.305zm92.127 6.998a39.66 39.66 0 0 0-4.973.26c-5.475 2.418-10.908 8.65-10.908 8.65a25.92 25.92 0 0 1-3.208 2.501c4.592 2.56 12.805 1.033 12.805 1.033 13.632-5.05 24.486-3.79 24.486-3.79-4.064-7.077-12.25-8.587-18.202-8.654zM412.9 44.93s-3.534.502.252 8.583c0 0 1.308 3.801 1.566 6.967h8.362c-1.394-1.985-4.14-5.608-6.64-7.219 0 0 2.504-2.5 10.986 7.22h7.294c-2.291-2.966-8.007-9.245-17.27-12.268 0 0-3.54-1.014-4.55-3.283zM128.62 52c-.864 2.587-4.911 6.355-7.386 8.48h9.116c2.336-6.11-1.73-8.48-1.73-8.48zm228.23 0a5.81 5.81 0 0 0-5.807 5.802c0 .942.237 1.857.667 2.678h10.28a5.83 5.83 0 0 0 .667-2.678l-.075-.927.243-.04c-1.439-.897-3.34-2.45-4.325-4.774l-.044.163L356.85 52zm-144.46.966c4 3.294 8.462 6.057 10.957 7.514h25.743c-.823-2.965-2.861-4.687-4.487-5.604-7.097.91-14.134-.546-17.85-1.548-5.34 1.69-10.433.944-14.362-.362zm-17.125 1.054-1.482.26c-.593 2.325-2.33 3.235-3.764 3.58l-.31 1.711.186.91h10.767l.155-.91a5.555 5.555 0 0 0-5.551-5.55zm265.53 24.711v13.661c.063.038.123.064.186.102.507-2.995 2.074-6.02 3.892-8.693-.908-1.508-2.282-3.462-4.078-5.07zm-358.21 1.192c-1.387 1.42-2.48 2.988-3.239 4.25 1.315 1.934 2.492 4.047 3.24 6.203V79.923zm368.97 3.38c-.532.066-.851.384-.851.384-5.004 3.575-6.461 8.272-6.888 10.723 6.777 5.065 15.376 15.277 15.25 34.458 1.923.14 2.996 1.028 2.996 1.028.842-.6 1.64-1.16 2.4-1.677 3.56-13.958-2.4-26.101-2.4-26.101-2.777-3.535-6.562-14.394-6.562-14.394-1.578-3.945-3.057-4.532-3.945-4.421zm-378.88.37v.005c-.887-.11-2.366.478-3.944 4.421 0 0-3.795 10.857-6.57 14.39 0 0-5.953 12.144-2.392 26.105a121.9 121.9 0 0 1 2.391 1.673s1.08-.885 3.005-1.028c-.126-19.177 8.473-29.385 15.25-34.454-.427-2.448-1.884-7.147-6.888-10.723 0 0-.32-.323-.852-.389zm368.12 14.96v17.173c6.627 5.058 13.19 14.337 13.19 14.337a12.58 12.58 0 0 1 1.147-.551c.133-5.91-.869-21.761-14.337-30.96zm-358.21.979c-12.663 9.272-13.624 24.569-13.494 30.354.37.156.749.333 1.143.552 0 0 6.022-8.516 12.351-13.68V99.613zm396.28 11.866c-5.323-.14-8.965 2.423-10.573 3.852a77.737 77.737 0 0 1-.6 10.767c3.644-2.294 5.732-3.278 5.732-3.278-5.45 4.706-6.786 10.28-6.129 15.647 5.9-.78 7.14-8.075 7.14-8.075 1.514-7.825 4.289-13.128 4.289-13.128 7.32-4.29 2.528-5.556 2.528-5.556a16.734 16.734 0 0 0-2.387-.23zm-433.52.375c-.76.02-1.554.096-2.382.238 0 0-4.797 1.257 2.524 5.551 0 0 2.779 5.305 4.293 13.132 0 0 1.232 7.288 7.13 8.067.66-5.368-.67-10.941-6.12-15.647 0 0 2.08.984 5.724 3.278a77.999 77.999 0 0 1-.591-10.767c-1.607-1.43-5.253-3.995-10.577-3.852zm243.03 6.019c-.834.113-1.584.445-2.259.9-1.62 4.59-1.207 9.384-1.438 14.248-1.168 7.129-10.356 2.784-14.544 6.712-.907 1.841-.26 3.66 1.584 4.598 4.408 1.128 11.117-1.172 12.96 4.598.453 5.314-.455 10.852.23 15.674-.232 9.686.415 19.573-1.205 29.026-2.065 3.927-7.308 2.563-10.78 3.468-1.621.455-2.76 1.843-2.49 3.464 1.583 4.824 7.536 2.532 11.23 3.698 1.622 1.13 3.247 2.989 3.47 5.052.453 4.189 0 8.371.454 12.51 1.843 4.824 8.29 2.309 12.439 3.243 11.307-.713 22.838.226 34.145-.23.674-.49 1.844-.94 1.584-2.108-.454-1.129-1.618-1.125-2.564-1.58-13.151-1.387-25.829-.04-38.747-1.21-1.582-.904-2.946-1.842-3.168-3.697-1.139-16.843.009-36.894-.446-53.066 0-10.815.005-21.107.225-32.411-.676-4.41 1.128-8.103 2.489-11.76l-.684-.675c-.81-.455-1.65-.57-2.484-.455zm-53.732.296c-.84.135-1.63.651-1.884 1.513 2.074 5.96.718 13.082 1.664 19.296 0 15.001.03 28.152-.23 42.661-.907 12.255 1.098 24.275-.754 36.033-2.75 5.317-9.84 3.917-14.923 3.693l-16.137.455c-3.695-.221-8.064-.268-11.305 1.13-.223.675.003 1.431.225 1.884 1.177.223 2.53 1.132 3.698.225 4.862 1.62 9.907-.675 14.769.23l24.878-.455c1.128-.674 2.485-.983 2.938-2.335.415-5.545.677-11.724 1.13-17.262 3.02-5.769 11.573.86 14.323-4.902-.907-7.842-10.627-.644-13.869-6.637-1.35-6.925-.447-13.192-.9-20.35 1.138-9.687-.007-17.905 1.355-27.589 1.851-3.475 6.744-.947 9.725-2.334 1.62-.193 2.565-2.109 2.334-3.468-2.788-4.41-9.041-.718-12.514-3.698-1.35-5.317.52-10.851-1.284-16.128-.144-1.437-1.838-2.19-3.239-1.964zm162.16.6-.009.005c-3.694 1.58.231 5.248 0 8.22-.222 13.38-.005 26.807.225 40.631-.453 13.383-.226 26.731-.68 40.102-1.389 4.865 1.85 10.891-3.688 13.42-8.066.233-16.13.444-23.974.22-5.76.445-12.704-2.103-17.567 1.139-.231.675-.271 1.652.675 2.104l11.31.225c11.528-.22 22.839.675 34.599-.225l2.114-1.884c.676-5.535 1.584-11.04 1.584-16.812 2.074-5.535 8.971-.91 12.889-3.468 1.62-.452 2.069-2.52 1.809-4.144-2.75-3.2-7.833-1.652-11.76-2.559l-1.8-1.359c-1.805-5.314-1.542-12.473-.905-18.021v-16.133c.231-4.149.453-7.129 0-11.305 1.167-6.9 9.651-1.36 13.569-5.277.453-.714.679-2.3.225-3.244-1.4-3.696-5.946-1.806-8.966-2.714-8.25-1.854-2.755-11.799-5.282-17.337-.897-1.361-2.748-1.584-4.369-1.584zm-269.88.684c-4.602 3.462-1.619 10.357-3.693 14.998-1.4 5.99-8.3 2-11.985 4.298-1.62.673-3.05 2.368-2.789 4.222.907 2.073 3.2 1.807 5.053 2.714 2.527-.455 5.322-.448 7.84-.225 2.529 1.166 2.069 3.962 3.015 6.028-1.4 14.509.486 29.025-1.134 44.025l-1.13 1.13c-3.695 1.399-8.328-.634-11.53 1.884-.936.947-1.43 2.302-.755 3.468 3.02 4.593 9.722.908 13.64 3.918.944 5.048.194 11.273.908 16.587.454 1.352 1.844 2.793 3.244 3.014 14.017.686 29.06-.002 43.57.45 1.167-.221 2.52-.945 2.26-2.334-.001-.905-.91-1.36-1.585-1.584-6.484-.453-12.02-.453-18.242 0-5.77.492-11.956-.903-17.946-.23-2.567-.673-6.698.003-7.382-3.914-.223-7.38-.909-13.876-1.13-21.489.907-18.697.003-38.453.225-57.814l.45-12.064c-.897-2.52 4.141-7.082-.904-7.082zm313.86 4.598v13.092c3.352 1.525 6.805 1.835 6.805 1.835.39-4.254-3.492-10.468-6.805-14.928zm-358.21 1.53c-3.09 4.333-6.312 9.877-5.952 13.777 0 0 2.89-.271 5.952-1.487v-12.29zm377.07 7.913c-.725.063-1.359.44-1.359.44.757 5.049-2.016 4.043-2.016 4.043-4.797-.505-4.042 1.765-4.042 1.765 3.535 4.292 14.64 23.73 14.64 23.73 6.313 11.36 2.525 10.353 2.525 10.353-2.278-4.383-6.737-4.264-9.258-3.782.43 1.184.675 2.452.675 3.782 0 .042-.005.087-.005.128 3.901.683 12.98 4.399 22.756 23.202 1.513.96 3.456 2.506 5.953 4.88.43-1.51 1.182-3.916 2.206-6.358-14.074-17.23-6.42-29.931-6.42-29.931l.083-.049c-.223-.193-.454-.373-.666-.587l2.855-2.855c.08.078.166.145.247.22.186-1.26-.247-2.285-.247-2.285-4.04-4.543-5.555 1.01-5.555 1.01-1.266 5.808-4.797 3.284-4.797 3.284-8.583-12.875-15.652-29.538-15.652-29.538-.378-1.263-1.198-1.515-1.924-1.452zm-395.06.37c-.726-.063-1.545.19-1.923 1.452 0 0-7.067 16.663-15.652 29.538 0 0-3.536 2.524-4.797-3.283 0 0-1.518-5.554-5.56-1.01 0 0-1.51 3.542 2.277 5.56 0 0 7.655 12.698-6.42 29.925 1.024 2.443 1.776 4.857 2.206 6.368 2.496-2.375 4.441-3.927 5.953-4.89 9.78-18.81 18.856-22.52 22.756-23.201-.002-.043-.005-.084-.005-.124 0-1.33.245-2.6.675-3.782-2.521-.482-6.984-.6-9.262 3.782 0 0-3.79 1.006 2.524-10.356 0 0 11.109-19.442 14.645-23.731 0 0 .755-2.27-4.042-1.765 0 0-2.77 1.009-2.012-4.042 0 0-.638-.378-1.364-.441zm376.23 7.47v4.581c.26-1.874 2.838-3.65 2.838-3.65a25.354 25.354 0 0 1-2.838-.93zm-358.24.69c-.663.235-1.336.449-1.998.617 0 0 1.154.796 1.998 1.884v-2.502zm365.59 3.088c-3.414.137-7.06 2.202-7.06 2.202a1.975 1.975 0 0 1-.313-.812v6.063c3.28-2.07 8.015-3.73 14.156-2.577-1.038-1.344-1.721-2.167-1.721-2.167-1.04-2.176-3.01-2.79-5.057-2.71h-.005zm-372.98.37c-1.722.115-3.296.83-4.192 2.7 0 0-.684.827-1.72 2.171 5.633-1.06 10.083.257 13.312 2.079v-5.03c-1.244-.627-4.528-2.112-7.4-1.92zm-46.275 2.537c-4.594 0-8.326 3.736-8.326 8.327 0 4.596 3.732 8.335 8.326 8.335 1.651 0 3.237-.505 4.594-1.407-.746-1.885-1.915-6.571 3.464-9.029-.934-3.578-4.19-6.226-8.058-6.226zm464.56 0c-.245 0-.486.015-.728.035-2.68.877-4.739 3.083-5.454 5.83 5.359 2.457 4.189 7.13 3.442 9.015a8.317 8.317 0 0 0 4.598 1.407c.243 0 .482-.02.72-.04a8.265 8.265 0 0 0 3.322-2.02c3.241-3.25 3.241-8.54 0-11.787a8.295 8.295 0 0 0-5.9-2.44zm21.273 16.49v.005c-.8.051-2.362.763-5.202 2.736 0 0-10.181 7.07-7.157 21.401.685.628 1.385 1.48 2.109 2.586 0 0 3.822 6.435 6.711 12.955a44.58 44.58 0 0 1 4.073-3.79c.293-4.313.387-10.663-1.187-13.967 0 0-5.304-11.864.503-18.935 0 0 1.91-3.104.15-2.991zm-505.25.375c-1.76-.112.155 2.992.155 2.992 5.805 7.07.503 18.935.503 18.935-1.573 3.307-1.481 9.654-1.187 13.966a44.62 44.62 0 0 1 4.064 3.79c2.886-6.52 6.716-12.955 6.716-12.955.722-1.103 1.428-1.955 2.113-2.585 3.024-14.33-7.166-21.401-7.166-21.401-2.84-1.972-4.398-2.685-5.198-2.736v-.005zm65.042 2.233c-3.897 0-7.073 3.174-7.073 7.073 0 3.898 3.176 7.07 7.073 7.07 3.896 0 7.06-3.172 7.06-7.07 0-3.9-3.164-7.073-7.06-7.073zm375.01 0c-2.826 0-5.263 1.675-6.393 4.077a7.021 7.021 0 0 0-.508 2.621c0 3.895 3.166 7.07 7.065 7.07 2.824 0 5.262-1.674 6.394-4.073a7.024 7.024 0 0 0 .511-2.622c0-3.9-3.172-7.073-7.069-7.073zm-385.2 11.45c-8.527-.766-15.858 12.134-18.877 18.361.671 1.096.292 3.005.292 3.005a8.932 8.932 0 0 0-.905 2.405c6.673-9.156 19.024-15.756 24.468-18.352a11.185 11.185 0 0 1-4.977-5.419zm394.45 12.404s0 10.857-1.01 15.907c0 0 .332 6.298 3.327 10.934 4.037 2.563 7.568 5.184 10.626 7.828.362-1.055.93-2.475 1.765-4.073-1.916-7.015-9.408-18.732-9.408-18.732-2.273-4.292-2.02-4.796-2.02-4.796 4.295 2.045 12.234 13.698 15.095 18.052.106-.126.2-.25.31-.375 0 0 1.64-3.957 2.117-8.349-3.832-4.845-12.753-15.056-20.8-16.397zm-393.35.375c-8.05 1.342-16.965 11.553-20.797 16.397.478 4.392 2.114 8.344 2.114 8.344.108.126.199.254.304.38 2.861-4.352 10.8-16.002 15.096-18.048 0 0 .252.503-2.02 4.792 0 0-7.485 11.718-9.4 18.736a29.825 29.825 0 0 1 1.766 4.073c3.058-2.644 6.588-5.27 10.626-7.833 2.996-4.636 3.322-10.934 3.322-10.934-1.01-5.05-1.01-15.907-1.01-15.907zm434.25 1.39c-1.125.054-5.714.994-7.073 12.58 2.197 2.646 5.355 7.073 8.155 13.388 1.38-2.513 4.047-6.98 7.673-11.398-1.407-4.244-5.112-14.365-8.503-14.566 0 0-.09-.012-.252-.005zm-475.15.38a1.483 1.483 0 0 0-.26.005h-.004c-3.39.207-7.097 10.32-8.504 14.562 3.628 4.42 6.303 8.894 7.683 11.407 2.8-6.315 5.948-10.744 8.146-13.392-1.353-11.562-5.922-12.523-7.06-12.58zm458.11 8.243c-.757.158-1.392 1.358-.887 5.524 0 0 .76 13.378-4.54 17.673 0 0-1.615 2.293-1.302 5.004 8.56 8.657 12.61 17.27 14.438 24.256.652-6.85.406-16.048-3.04-25.893 0 0 4.716.67 11.446 41.735 0 0 1.221.457 2.568-.48 1.892-7.084 9.342-41.61-17.046-67.095 0 0-.88-.88-1.637-.723zm-441.08.375c-.757-.158-1.641.728-1.641.728-26.376 25.474-18.942 59.977-17.046 67.081 1.35.945 2.573.494 2.573.494 6.73-41.07 11.442-41.748 11.442-41.748-3.447 9.843-3.689 19.044-3.036 25.893 1.829-6.983 5.872-15.59 14.429-24.243.314-2.714-1.293-5.008-1.293-5.008-5.302-4.294-4.55-17.673-4.55-17.673.505-4.165-.12-5.367-.878-5.525zm480.34.097c-.673.096-1.894.854-4.072 3.032 0 0-11.503 10.447-14.65 20.219 1.287 3.924 2.355 8.384 3.031 13.375 2.013-8.956 7.073-15.665 7.073-15.665-2.524 3.533-2.775 13.123-2.775 13.123.364 2.907-2.146 8.281-3.583 11.076.19 5.538-.105 11.613-1.09 18.246 5.367-4.692 18.868-18.81 17.042-40.931 0 0-4.797-15.91-.252-20.96 0 0 .398-1.674-.723-1.514zm-519.6.37c-1.121-.16-.728 1.514-.728 1.514 4.543 5.05-.256 20.96-.256 20.96-1.825 22.125 11.683 36.243 17.05 40.93-.985-6.633-1.29-12.703-1.098-18.241-1.439-2.795-3.942-8.173-3.579-11.08 0 0-.251-9.588-2.775-13.123 0 0 5.064 6.715 7.073 15.678.677-4.996 1.748-9.46 3.036-13.388-3.148-9.772-14.66-20.22-14.66-20.22-2.176-2.176-3.39-2.935-4.063-3.03zm445.29 12.364c-1.61.067-1.345 1.906-1.345 1.906 3.029 2.018 9.43 17.836 9.43 17.836 4.052 28.11 18.508 35.167 24.057 36.86-3.213-10.66-9.46-26.987-20.364-40.557 0 0 6.976 4.985 28.13 34.33 6.686-24.934-34.52-47.793-34.52-47.793-2.776-2.02-4.421-2.617-5.387-2.577v-.005zm-370.97.37v.006c-.966-.04-2.611.556-5.387 2.577 0 0-41.198 22.853-34.515 47.793 21.154-29.345 28.117-34.33 28.117-34.33-10.9 13.574-17.142 29.9-20.355 40.556 5.545-1.691 20.008-8.746 24.062-36.854 0 0 6.394-15.822 9.425-17.84 0 0 .264-1.84-1.346-1.906zm265.31 3.169c-1.026.04-1.96.588-2.568 1.884-1.167 1.583-1.426 3.884-.75 5.957.714 1.4 1.848 2.783 3.468 3.014 1.399-.231 3.245.193 4.373-.975 1.138-2.073 1.357-5.003-.225-6.857-.706-1.717-2.588-3.086-4.298-3.023zm-159.66.984c-2.296.907-3.922 2.527-3.922 5.052.22 2.297-.644 4.787 1.884 5.953 1.128.9 2.983 1.126 4.373.45 2.565-.945 2.53-4.106 2.713-6.403-.675-2.304-2.752-4.366-5.048-5.052zm258.9 10.912c-.928.07-1.815.247-2.62.57 0 0-5.224-.253 2.854 9.592 0 0 7.826 9.085 9.09 11.61 0 0 4.584 4.96 8.768 7.418-3.102-6.305-4.558-12.13-4.558-12.13-.65-4.053-3.091-10.363-5.45-15.824-2.175-.692-5.299-1.444-8.083-1.236zm-355.24.146zm-3.856 1.275c-2.786-.208-5.908.552-8.084 1.244-2.358 5.458-4.802 11.764-5.45 15.815 0 0-1.453 5.837-4.558 12.144 4.184-2.457 8.764-7.426 8.764-7.426 1.262-2.526 9.09-11.614 9.09-11.614 8.08-9.848 2.863-9.593 2.863-9.593-.805-.323-1.697-.5-2.625-.57zm448.11 10.859c-2.565.082-5.214.423-6.87.67-2.383 9.112-7.385 20.193-17.877 28.925.105 1.85.174 3.884.186 6.02 10.079.11 17.774-12.7 17.774-12.7 3.786-8.08 9.341-16.412 9.341-16.412 7.827-4.292 2.776-6.063 2.776-6.063-.795-.233-1.77-.367-2.833-.423a30.13 30.13 0 0 0-2.498-.018zm-536.18.393a29.513 29.513 0 0 0-2.502.018c-1.063.056-2.034.185-2.829.419 0 0-5.045 1.767 2.78 6.058 0 0 5.552 8.33 9.337 16.411 0 0 7.696 12.813 17.774 12.695.012-2.133.086-4.167.19-6.014-10.49-8.734-15.501-19.815-17.884-28.925-1.656-.247-4.301-.58-6.866-.662zm498.01 10.153s.668 24.232-3.371 25.245c0 0-2.358-6.392-5.388-12.452 0 0 4.717 15.822 4.717 28.61 0 0-2.358-.336-3.367-4.377 0 0-6.56-8.286-12.223-10.317a12.535 12.535 0 0 1-2.162 6.615c6.008 2.296 10.329 5.925 12.81 10.868 3.756 7.483 2.336 15.902 1.112 20.377 1.643 2.62 4.71 8.159 6.773 15.846a39.565 39.565 0 0 1 2.55-2.608c1.348-16.212 11.383-23.228 16.84-25.867a12.567 12.567 0 0 1-.878-4.607c0-.156.015-.307.022-.463-3.11 1.063-7.446 3.065-11.04 6.658 0 0-2.691-1.69 4.038-31.987 0 0-3.364 5.726-5.723 6.734 0 0-3.696-7.4-4.709-28.276zm-459.82.38c-1.012 20.864-4.713 28.271-4.713 28.271-2.357-1.006-5.727-6.73-5.727-6.73 6.732 30.296 4.042 31.984 4.042 31.984-4.393-4.395-9.894-6.408-12.911-7.237.012.224.035.445.035.67 0 1.483-.275 2.898-.746 4.22 4.685 1.874 17.052 8.514 18.555 26.634a39.519 39.519 0 0 1 2.56 2.6c2.062-7.687 5.122-13.22 6.764-15.842-1.223-4.47-2.635-12.894 1.12-20.377 2.482-4.945 6.796-8.572 12.798-10.864a12.54 12.54 0 0 1-2.154-6.614c-5.66 2.028-12.223 10.308-12.223 10.308-1.01 4.04-3.367 4.386-3.367 4.386 0-12.792 4.718-28.62 4.718-28.62-3.032 6.06-5.388 12.46-5.388 12.46-4.04-1.007-3.363-25.248-3.363-25.248zm32.23 17.667c-4.733 0-8.587 3.854-8.587 8.591 0 4.734 3.854 8.583 8.587 8.583 4.734 0 8.582-3.849 8.582-8.583 0-4.737-3.848-8.59-8.582-8.59zm393.84 0c-.454 0-.894.047-1.328.115-3.339 1.178-5.737 4.36-5.737 8.097 0 4.737 3.848 8.587 8.583 8.587.446 0 .882-.05 1.31-.115 3.347-1.173 5.759-4.349 5.759-8.093 0-4.737-3.854-8.59-8.587-8.59zm-129.61 4.602c-.71-.013-1.504.196-2.26.6-2.97 1.855 1.205 3.888 1.205 6.183-.222 17.753.907 36.863 0 54.655 0 12.438.684 26.278-.454 38.972-.714 2.075-3.053 3.018-5.128 3.239-16.845 1.62-34.78.456-51.857 1.13l-2.113.983c-1.168 1.13.268 2.486 1.204 3.16 17.076.947 33.432-.453 50.732 0 3.926-1.129 9.014 1.212 11.985-2.485 0-5.759.907-11.566 1.814-16.883 2.567-5.083 10.098-.007 13.339-4.377.674-1.166.936-2.782 0-3.689-3.928-3.463-10.56-.005-14.023-4.152-1.814-6.212-.482-14.997-.675-22.156.645-8.298-.456-15.683.229-24.203 1.843-6.714 9.877-2.036 13.794-5.953.231-1.166.678-2.567-.23-3.698-3.694-1.852-8.516-.705-11.98-2.559-2.488-4.138-1.777-9.953-1.584-14.778-.144-2.234-1.868-3.949-3.997-3.989zm-135.62 1.042c-1.475.113-3.197 1.14-3.835 2.272-.453 4.594-1.133 8.524-.68 13.114-1.62 6.486-8.97 3.88-13.793 5.278-1.4.455-2.564 1.847-2.564 3.468 2.295 5.538 8.748 1.843 13.119 3.464 4.149 2.52 3.016 7.625 3.239 11.764-.222 11.086-.004 22.16-.225 33.92-.233 1.844.043 4.41-1.81 5.807-4.63 1.352-10.173-.525-13.868 3.168-.715.938-.007 2.562.9 3.014 4.138 2.751 11.082-.449 14.323 4.373 1.804 5.096.447 10.673 1.354 16.433.444.907 1.63 2.268 3.019 2.489 8.701.686 17.533-.684 26.312-.684 7.12 1.362 13.986-.714 21.106 0 3.463-.714 7.009.038 10.25-1.13 1.129-.904 0-2.29-.454-3.014l-18.467-.225c-12.214-1.128-24.453.497-35.954.225l-1.659-1.354c-.676-7.39-.46-13.637-1.134-21.26 0-3.463.675-7.84 0-11.084.907-7.16.455-13.558.455-20.951.22-13.15-.907-27.702 0-41.086.453-2.294 2.6-3.646 2.784-5.953-.07-1.284-.863-1.923-1.805-2.039a3.158 3.158 0 0 0-.613-.009zm-192.73 15.06c-4.737 0-8.587 3.848-8.587 8.582 0 4.734 3.85 8.587 8.587 8.587 4.733 0 8.582-3.853 8.582-8.587s-3.85-8.582-8.582-8.582zm521.76 0a7.79 7.79 0 0 0-.786.04c-3.445 1.115-5.943 4.351-5.943 8.163 0 4.734 3.85 8.582 8.582 8.582.265 0 .527-.013.786-.04 3.446-1.115 5.943-4.35 5.943-8.163 0-4.734-3.848-8.582-8.582-8.582zm-52.373 17.019a.695.695 0 0 0-.344.044c-.629.23-1.639 1.274-3.248 4.02 0 0-4.48 5.195-5.03 13.706 1.673 4.088 3.75 11.182 3.658 21.145a630.802 630.802 0 0 1 5.158-6.072s2.22-3.204 4.135-7.74c-1.298-5.402-4.015-17.578-3.628-23.563 0 0 0-1.437-.701-1.54zm-415.18.38c-.702.102-.702 1.535-.702 1.535.386 5.988-2.33 18.174-3.627 23.577 1.915 4.533 4.13 7.736 4.13 7.736 1.82 2.113 3.555 4.16 5.158 6.067-.092-9.963 1.99-17.057 3.663-21.145-.55-8.51-5.03-13.71-5.03-13.71-1.61-2.745-2.62-3.781-3.248-4.01a.708.708 0 0 0-.344-.05zm389.8 1.12c-.481.163-.979 1.68-.19 8.623 0 0-1.226 9.35-3.667 14.548 3.283 4.103 6.505 9.488 8.971 16.503 0 0 2.612-14.637-1.844-20.695 0 0 6.06-1.007 8.079 29.459 0 0 2.506-3.144 6.301-7.722-.41-8.408-2.824-33.718-17.077-40.424 0 0-.285-.39-.573-.291zm-364.43.38c-.289-.097-.574.291-.574.291-14.252 6.707-16.67 32.018-17.08 40.424 3.798 4.576 6.314 7.714 6.314 7.714 2.021-30.461 8.075-29.46 8.075-29.46-4.46 6.059-1.85 20.705-1.85 20.705 2.467-7.016 5.688-12.397 8.972-16.503-2.444-5.199-3.667-14.553-3.667-14.553.789-6.942.29-8.456-.19-8.618zm400.99 9.85c-.85 0-1.676 1.42-2.15 5.965 0 0-1.52 16.918-14.65 27.773 0 0-9.595 10.856-8.838 25.752 0 0-5.547 4.292-5.043-11.362 0 0-6.817-36.607-23.48-43.676 0 0-1.95 34.648-.23 45.37 7.413-.028 14.156 4.7 17.531 8.328l36.254 34.529c5.135-1.651 17.366-6.788 20.925-19.05 0 0 10.603-12.868 20.448-17.92 0 0-22.213-9.598-50.997 16.156 0 0-5.3 3.533-2.524-3.535 0 0 7.57-11.866 5.551-17.924 0 0-4.543 2.778-9.593 18.683 0 0 .001 2.524-2.02.755 0 0 .501-13.884 9.085-23.983 0 0 7.578-9.338 5.304-21.203 0 0 3.035-3.286 4.55 4.284 0 0-.003 22.976-8.336 36.863 0 0 2.721-4.554 10.259-8.587 3.6-7.297 10.99-27.222.852-53.269 0 0-1.477-3.945-2.895-3.945l-.005-.005zm-437.53.374v.005c-1.418 0-2.895 3.945-2.895 3.945-10.139 26.044-2.749 45.975.852 53.274 7.54 4.033 10.255 8.587 10.255 8.587-8.333-13.888-8.331-36.867-8.331-36.867 1.516-7.576 4.54-4.293 4.54-4.293-2.271 11.865 5.304 21.21 5.304 21.21 8.584 10.1 9.09 23.988 9.09 23.988-2.02 1.766-2.02-.764-2.02-.764-5.051-15.903-9.594-18.683-9.594-18.683-2.021 6.058 5.556 17.928 5.556 17.928 2.778 7.071-2.524 3.54-2.524 3.54-28.782-25.754-51.005-16.165-51.005-16.165 9.847 5.05 20.457 17.928 20.457 17.928 3.422 11.787 14.842 16.98 20.28 18.83l42.952-40.474.3-.141c.386-.18 5.595-2.517 11.257-2.612 1.562-11.358-.318-44.784-.318-44.784-16.662 7.07-23.47 43.676-23.47 43.676.504 15.654-5.053 11.362-5.053 11.362.76-14.893-8.843-25.752-8.843-25.752-13.125-10.86-14.637-27.78-14.637-27.78-.474-4.544-1.299-5.966-2.149-5.966zm469.56 3.319c-6.865 1.22-11.953 4.76-15.48 8.26-.001.058-.01.114-.013.172l-.145-.014a35.514 35.514 0 0 0-5.088 6.474c.445 2.62.744 5.42.83 8.38 6.474-7.828 6.68-4.082 6.68-4.082-2.755 1.304-5.26 6.766-6.892 11.186-.585 6.54-2.28 13.676-5.697 21.21 3.3-1.336 7.269-2.491 11.998-3.243 5.127-5.146 6.063-13.33 6.063-13.33 3.363-21.374 7.404-28.277 7.404-28.277 3.536-6.223.34-6.738.34-6.738zm-501.59.379s-3.192.503.344 6.73c0 0 4.033 6.902 7.4 28.275 0 0 .941 8.196 6.076 13.34 4.724.75 8.691 1.908 11.99 3.242-3.42-7.535-5.118-14.668-5.702-21.21-1.633-4.42-4.137-9.891-6.892-11.196 0 0 .21-3.739 6.685 4.091.085-2.962.38-5.77.825-8.393a35.583 35.583 0 0 0-5.092-6.469l-.146.005c-.003-.058-.01-.105-.013-.163-3.527-3.5-8.617-7.036-15.475-8.252zm418.64 14.337c.236.046.652.325 1.315.94 0 0 5.551.255 12.369 25.249 0 0 1.516 9.086-.503 9.337 0 0-2.777-.501-2.273-7.824 0 0-2.272-4.296-2.272 4.541 0 0-3.288 1.772-3.288-3.279 0 0 2.026-18.434-4.033-24.997 0 0-1.993-3.55-1.496-3.94.042-.033.103-.042.181-.027zm97.889.141c-.584-.103-1.555.229-3.164 1.553 0 0-7.89 6.167-13.873 4.413-1.697 7.86-1.946 15.201-1.946 15.201 3.865-4.548 5.052-3.534 5.052-3.534.434 4.467-7.023 12.868-9.173 15.193a85.511 85.511 0 0 1 7.435-.23c3.307-3.023 15.029-14.802 16.547-31.043 0 0 .095-1.38-.878-1.553zm-433.58.238c.079-.015.135-.007.176.027.497.39-1.491 3.94-1.491 3.94-6.06 6.566-4.042 24.993-4.042 24.993 0 5.056-3.283 3.283-3.283 3.283 0-8.84-2.268-4.545-2.268-4.545.505 7.323-2.273 7.828-2.273 7.828-2.019-.253-.503-9.337-.503-9.337 6.816-24.997 12.37-25.253 12.37-25.253.662-.615 1.078-.89 1.314-.935zm-97.898.142c-.974.172-.874 1.557-.874 1.557 1.517 16.24 13.24 28.008 16.547 31.034 2.637-.029 5.12.053 7.444.234-2.143-2.312-9.606-10.724-9.174-15.2 0 0 1.179-1.014 5.048 3.534 0 0-.248-7.336-1.946-15.193-5.981 1.754-13.878-4.409-13.878-4.409-1.609-1.325-2.583-1.66-3.168-1.557zm128.52 25.037c-4.385 0-7.952 3.56-7.952 7.947 0 4.385 3.567 7.951 7.952 7.951 4.383 0 7.951-3.567 7.951-7.951 0-4.387-3.568-7.947-7.951-7.947zm273.34 0c-4.385 0-7.952 3.56-7.952 7.947 0 4.385 3.567 7.951 7.952 7.951 4.388 0 7.951-3.567 7.951-7.951 0-4.387-3.563-7.947-7.951-7.947zm35.544 11.667zm-173.71 1.328a2.775 2.775 0 0 0-.684.075c-1.582.223-2.326 1.434-3.464 2.339-.482 2.037-1.62 4.56 0 6.411.453 1.583 2.073 3.239 3.693 3.239 1.582 0 3.238-.274 3.923-1.664-.231-2.749 1.131-5.235-.23-7.532-.59-1.384-1.727-2.838-3.238-2.868zm-144.58 2.36c-.416 1.217-.921 4.033-.468 10.212.803.088 1.594.209 2.37.357-.22-2.478-.231-5.745.82-8.049a12.1 12.1 0 0 1-2.722-2.52zm291.7.552a12.087 12.087 0 0 1-3.64 2.767c1.247 2.35.888 5.79.44 8.057a41.06 41.06 0 0 1 3.509-.53c.581-5.912.16-8.854-.31-10.294zm87.613 6.341c1.584.036 2.109.852 2.109.852-6.813 3.281-19.438 18.176-19.438 18.176-2.525-1.01-1.765-5.304-1.765-5.304 10.889-11.676 16.453-13.782 19.093-13.723zm-465.35.406c2.64-.058 8.197 2.056 19.085 13.732 0 0 .761 4.291-1.765 5.304 0 0-12.62-14.903-19.438-18.184 0 0 .533-.816 2.118-.851zm330.24 19.844c-.803.075-2.21.997-4.611 3.521 0 0-8.572 9.858-11.623 17.44.207 3.05.371 7.046.256 11.19 4.168-1.139 6.164-8.437 6.164-8.437 1.738-7.828 3.72-7.572 3.72-7.572.994 3.284-.746 7.325-.746 7.325-2.224 3.03-3.711 18.176-3.711 18.176l-3.6 2.038c7.322-3.49 13.504-6.965 18.382-9.968l-3.389 1.871s2.722-13.888-1.98-22.218c0 0-.495-5.05 1.729-9.593 0 0 1.178-3.937-.587-3.773h-.005zm-196.69.208c-1.798-.163-.6 3.781-.6 3.781 2.274 4.543 1.765 9.593 1.765 9.593-3.615 6.277-2.932 15.677-2.374 19.941a233.647 233.647 0 0 0 11.777 6.606c-.474-4.058-1.797-14.046-3.597-16.446 0 0-1.764-4.041-.754-7.325 0 0 2.02-.255 3.786 7.572 0 0 2.038 7.298 6.283 8.437-.115-4.146.051-8.144.265-11.195-3.114-7.583-11.852-17.44-11.852-17.44-2.445-2.524-3.882-3.45-4.7-3.525zm211.16 13.158c-4.254-.169-8.067 4.175-10.171 7.148.193 1.917.505 3.589 1.01 4.466 0 0 1.914 2.226 1.492 7.126 3.053-1.95 5.446-3.62 7.166-4.867-1.966-2.787.503-9.58.503-9.58 2.721-4.292 0-4.293 0-4.293zm-225.9.216s-2.78.002 0 4.293c0 0 1.674 4.552 1.174 7.731a252.92 252.92 0 0 0 6.636 4.382c.229-3.26 1.527-4.797 1.527-4.797.513-.877.83-2.543 1.028-4.46-2.143-2.973-6.026-7.318-10.365-7.15zm188.71 2.524c-.683.044-1.46.79-2.202 3.062 0 0-11.635 16.669-19.067 22.981 0 0-5.129 6.154-3.31 13.913a194.27 194.27 0 0 0 7.833-2.343c.996-9.214 8.6-19.65 8.6-19.65 6.938-9.088 6.438-4.037 6.438-4.037-4.812 4.207-3.895 17.712-3.733 19.69a203.09 203.09 0 0 0 5.829-2.37c1.539-3.78 7.245-19.302 1.624-29.441 0 0-.875-1.878-2.013-1.805zm-150.82.234c-1.159-.073-2.048 1.8-2.048 1.8-5.045 8.923-1.15 21.997.927 27.583a213.712 213.712 0 0 0 6.756 2.908c.22-4.025.376-14.712-3.897-18.38 0 0-.504-5.043 6.566 4.043 0 0 7.167 9.642 8.627 18.573 2.78.947 5.541 1.817 8.283 2.617 1.326-7.373-3.53-13.11-3.53-13.11-7.578-6.31-19.438-22.976-19.438-22.976-.759-2.272-1.551-3.015-2.246-3.058zm190.29 8.723-2.529 2.008a84.883 84.883 0 0 0 2.529-1.91v-.098zm-30.028 11.292c-.459.927-1.925 1.003-3 .923-.272 2.874-.74 5.65-1.466 8.088.963-.435 1.894-.873 2.82-1.31 2.36-3.036 1.646-7.7 1.646-7.7zm-169.87.221c-.001.007-.424 2.684.423 5.304 1.205.603 2.407 1.19 3.606 1.765-.453-1.932-.77-4.008-.976-6.151-1.093.08-2.586.002-3.053-.918zm125.67 9.231a1.881 1.881 0 0 0-.689.014c-3.73.76-3.406 13.26-3.406 13.26-.04.13-.082.252-.124.375a194.718 194.718 0 0 0 9.792-2.167c-.142-7.59-2.974-9.822-2.974-9.822-1.01-1.03-1.87-1.543-2.6-1.66zm-80.08.199c-.848-.09-1.89.386-3.177 1.672 0 0-2.691 2.101-3.005 9.082 3.305.874 6.58 1.645 9.822 2.32.024-1.673.036-12.68-3.64-13.07v-.004zm104.97 1.213c-1.938 1.538-3.694 4.795-4.113 5.609 1.238-.415 2.466-.837 3.667-1.267-.322-1.811.446-4.342.446-4.342zm-130.87.208s.494 1.596.534 3.164c.96.364 1.918.72 2.877 1.067-.802-1.331-2.058-3.18-3.411-4.231zm-126.89.83c-4.58.109-10.76 1.104-15.731 4.968 0 0-1.259 1.263 7.073 2.776 0 0 8.07 2.529 11.173 6.614-.26-1.992-.45-4.925.23-7.236.108-.37.242-.719.375-1.068-1.813-.136-3.451.424-3.451.424-4.04-.503-.251-2.767-.251-2.767 2.364-.246 3.772-.043 4.606.344 1.165-2.199 2.463-3.627 2.463-3.627s-1.847-.352-4.634-.424c-.58-.016-1.199-.02-1.853-.005zm385.19 0a36.273 36.273 0 0 0-1.876.005c-2.816.071-4.681.423-4.681.423s1.3 1.437 2.466 3.64c.84-.391 2.264-.605 4.678-.357 0 0 3.834 2.265-.252 2.767 0 0-1.679-.57-3.526-.423.132.349.267.698.376 1.067.688 2.345.484 5.324.22 7.316 3.09-4.136 11.354-6.694 11.354-6.693 8.417-1.513 7.135-2.776 7.135-2.776-5.022-3.864-11.267-4.86-15.894-4.969z"/><path fill="#101820" d="M340.69 142.48c-3.4.073-6.745.373-10.218.034-.907.221-1.81 1.165-1.81 2.112 0 1.387 1.578 1.58 2.486 2.486 1.851 2.98 1.436 6.671 1.436 9.873-.231 7.834-.45 14.556-.227 21.936-.454 2.296-4.413 3.423-2.339 6.182l9.27.227c4.825-1.842-1.657-4.37-1.203-7.159-.231-3.2-.412-6.63.755-9.65.674-.222 1.54-.26 2.032.454 2.074 4.593 5.283 8.517 7.84 12.887 1.138 1.844 2.983 3.465 5.28 3.241.907-.452 2.297-1.124 1.805-2.486-4.332-3.463-5.195-8.818-8.89-12.966-.714-1.387-.223-2.29 0-3.69 2.981-2.294 6.182-5.086 7.533-8.521.454-2.787.006-5.312-.448-7.84-1.351-4.149-5.96-6.188-9.878-7.085a47.35 47.35 0 0 0-3.423-.034zm42.849.034c-2.75.897-6.442-.725-8.97 1.13-.935 2.035.909 3.662 1.584 5.506-.222 9.918 1.394 20.047-.227 30.223-.453 1.623-2.783 2.524-3.014 4.144-.453.676.454 1.59 1.13 1.811 3.472 0 6.52-.225 9.724.228 4.149-1.852-.686-4.34-.908-6.637.222-10.4-.68-19.635.227-29.543.907-1.854 3.167-3.24 2.714-5.506-.184-1.131-1.315-1.136-2.26-1.357zm-213.11.454c-2.297.935-6.667-.683-6.937 2.56 0 1.322 1.624 1.545 2.339 2.493 4.148 5.538 5.056 12.17 7.612 18.16 1.36 3.01 1.389 6.527 3.242 9.276.674 3.696 1.357 8.03 5.052 9.418 1.388 0 2.038-1.125 2.714-2.033 3.695-11.297 6.028-23.3 9.724-34.373.492-.907 1.8-1.892 1.357-3.24-1.4-1.622-3.426-1.585-5.5-1.585-1.13.49-2.8.91-2.567 2.714 4.139 5.538-.416 12.47-1.13 18.24-.907 2.558-.454 6.712-3.695 7.164-2.075-2.294-2.345-5.312-3.242-7.84-2.074-4.138-2.983-8.549-4.37-13.187 0-2.075 1.666-3.137 2.111-4.979-.676-2.982-4.415-2.566-6.71-2.787zm54.426 0c-5.095.442-11.04.189-16.355 1.357-1.804 2.294 1.884 3.618 2.56 5.955.221 9.232-.006 18.207-.227 27.891 0 2.568-4.18 5.08-.976 6.932 4.862.223 9.455.687 14.096.908 2.749.234 5.957.524 7.539-2.265.946-1.62 2.143-3.73.976-5.575 0-1.128-1.436-2.263-2.333-1.81-1.36 2.065-1.77 4.376-4.297 5.273-2.788 0-6.97 1.66-8.822-1.13-.223-5.045-2.29-12.2.68-16.128 3.696-2.517 6.516 4.594 9.044.222.907-1.852.675-4.402-.675-6.256-2.788.234-4.15 3.955-7.392 2.566-3.464-2.073-1.664-7.43-1.885-10.854.454-1.855 2.085-2.94 4.15-2.94 3.02-.224 4.375 3.162 6.932 4.07 1.544-.455 1.54-2.261 1.356-3.39-1.62-1.62-1.36-5.059-4.37-4.825zm117.22 3.168c3.145-.274 5.388 2.543 6.182 5.347 1.35 2.526.674 5.506-.454 7.84-1.62 2.076-3.734 4.151-6.483 3.917-5.538-.713-2.074-7.39-2.787-10.622.26-2.037-.461-5.508 2.106-6.182a5.625 5.625 0 0 1 1.436-.3zm-80.966 151.35c-3.474 2.983-8.132 2.034-12.512 1.81-2.557.418-5.766.68-7.84-1.135-1.13-.713-2.714-.484-3.168.682-.713 2.972-2.824 5.961-1.657 8.97.674.906 1.589.681 2.265.226.945-2.528 3.274-4.329 5.802-5.052 1.167.233 2.565 1.394 3.241 2.339l-.675 11.229c.222 5.538-.272 11.574.22 16.889 1.13 3.696-5.279 5.285-2.258 8.969 1.128.455 2.903.686 4.07 0 2.528 0 5.543 1.173 7.386-.903 1.398-2.073-1.092-3.205-1.806-4.825-.23-6.935-.301-15.004-.755-22.163 1.178-3.473-1.352-7.655.982-10.406 3.435-1.852 3.463 3.291 6.705 3.02 2.518-1.35 1.362-5.09 2.492-7.619.192-1.128-1.325-2.032-2.492-2.032zm58.422 1.958c-1.06-.029-2.278.473-3.088 1.056-4.409-.452-9.724-.265-12.291 3.844-1.582 3.02-2.746 6.262-1.578 9.724 3.202 8.066 14.055 8.712 17.036 17.036.222 2.528-.636 5.134-2.941 6.484-3.01.492-6.22.446-8.294-2.112-2.788-1.397-1.43-5.501-4.672-5.501-3.464 1.623-.86 6.222-1.584 9.423.27.676.456 1.882 1.584 1.658 3.473-2.98 6.517 1.354 10.173 1.13 3.241-.49 6.49-1.166 8.748-3.917 2.306-2.566 3.019-6.447 2.788-9.65-1.65-9.725-12.923-10.173-17.565-17.566-.908-1.58-.68-3.43.227-5.052 2.103-2.295 5.085-.67 7.612-.449 2.064 1.13 2.836 5.494 5.808 3.69.907-2.334.684-5.316 0-7.613 0-1.6-.906-2.155-1.965-2.185zm-167.24 140.45c-.21-.023-.369.054-.488.25-.238.397-.024.674.488.988.652.394 1.41.932 1.714 1.272 1.3 1.326 1.129 2.445.068 4.405-.996 1.842-1.947 3.406-7.113 11.905l-5.983 9.832c-3.125 5.134-5.812 9.556-7.471 11.757-1.174 1.505-2.151 2.595-3.219 2.248a7.57 7.57 0 0 1-1.81-.8c-.56-.342-.85-.284-1.023 0-.236.387-.01.76.596 1.124 1.864 1.133 4.9 2.753 5.973 3.406 1.304.791 4.135 2.744 7.164 4.581.559.34 1.035.404 1.271.012.17-.276.037-.586-.476-.903-.699-.427-1.652-1.158-2.237-1.663-1.26-1.073-.796-2.479.017-4.127 1.226-2.538 3.912-6.958 7.04-12.092l2.991-4.916c.17-.284.34-.25.483-.165l17.797 10.82c.14.088.21.284.074.505l-2.986 4.917c-3.126 5.14-5.817 9.555-7.477 11.757-1.17 1.507-2.152 2.593-3.219 2.253a7.22 7.22 0 0 1-1.81-.794c-.559-.337-.846-.282-1.017-.006-.237.387-.016.758.636 1.152 1.815 1.103 4.856 2.722 5.927 3.378 1.306.789 4.137 2.74 7.164 4.587.56.34 1.033.398 1.271.011.17-.284.04-.591-.47-.908-.7-.42-1.659-1.164-2.243-1.669-1.262-1.07-.79-2.466.023-4.122 1.228-2.54 3.913-6.956 7.04-12.098l5.977-9.826c5.165-8.49 6.12-10.062 7.3-11.791 1.286-1.903 2.23-2.62 3.656-2.14.628.233 1.083.43 1.454.658.56.34.909.403 1.146.011.238-.394-.016-.706-.67-1.1-1.816-1.106-4.854-2.721-5.972-3.407-1.257-.766-4.094-2.714-6.608-4.246-.653-.392-1.048-.478-1.283-.091-.238.392-.03.676.483.982.653.397 1.409.933 1.714 1.272 1.3 1.324 1.134 2.455.068 4.405-.99 1.844-1.947 3.416-7.113 11.905l-.71 1.175c-.17.276-.38.3-.516.222l-17.79-10.84c-.138-.081-.208-.282-.04-.568l.715-1.164c5.163-8.498 6.114-10.059 7.295-11.785 1.283-1.9 2.234-2.63 3.662-2.14.627.229 1.082.43 1.453.658.558.34.911.387 1.147 0 .24-.392-.022-.703-.675-1.095-1.818-1.11-4.852-2.728-5.973-3.406-1.255-.764-4.09-2.71-6.607-4.241-.327-.202-.586-.33-.795-.352zm245.61 12.557c-6.237.182-11.672 3.57-16.009 6.273-2.778 1.734-5.595 3.718-7.022 4.61-1.302.81-4.312 2.455-6.767 3.985-.694.427-.955.743-.71 1.13.246.387.592.333 1.096.012.647-.402 1.474-.842 1.907-.96 1.768-.56 2.699.093 3.963 1.925 1.198 1.71 2.171 3.268 7.425 11.712l6.092 9.764c3.18 5.108 5.906 9.491 7.13 11.961.823 1.729 1.35 3.095.562 3.894-.348.37-.834.828-1.527 1.26-.56.35-.636.632-.46.909.236.384.665.349 1.266-.023.922-.576 2.06-1.44 3.122-2.1a54.116 54.116 0 0 1 2.606-1.704c1.16-.719 2.878-1.562 4.74-2.492 1.863-.935 3.87-1.943 5.535-2.986 8.561-5.332 10.918-12.276 11.422-16.213.623-4.772-.245-11.628-4.61-18.626-4.11-6.606-9.156-9.858-13.267-11.303a17.738 17.738 0 0 0-6.494-1.028zm-3.69 5.859c1.616.033 3.341.288 5.166.846 3.409 1.035 8.7 4.053 13.085 11.099 3.567 5.719 5.787 11.348 4.73 16.247-.98 4.613-3.43 7.682-8.158 10.627-3.654 2.281-6.183 2.24-7.437 1.561-.751-.387-2.238-2.549-3.145-3.906-.702-1.025-3.414-5.27-7.074-11.155l-4.365-6.988c-2.729-4.387-5.733-9.217-6.864-11.127-.386-.616-.417-.974-.141-1.46.236-.449 1.85-1.689 2.77-2.264 2.712-1.687 6.585-3.58 11.433-3.48zm-184.43 10.78c-.434.14-.998.732-1.976 1.874l-27.766 33.211c-2.212 2.646-3.992 4.34-6.471 3.787-.43-.1-1.163-.326-1.618-.5-.407-.166-.656-.112-.8.25-.193.487.064.723.726.982 2.638 1.04 5.5 1.96 6.057 2.174 1.576.623 3.685 1.664 5.308 2.3.56.22.908.212 1.102-.267.142-.37.04-.55-.568-.79l-.76-.3c-1.575-.616-1.72-1.584-1.29-2.68.287-.736 1.115-2.093 2.22-3.418l6.165-7.624c.244-.321.395-.407.648-.306l11.314 4.45c.252.103.359.286.34.625l-1.01 14.499c-.032.827-.606 1.241-1.01 1.226-.532-.14-.782-.105-.926.267-.167.422.439.665 1.328 1.084a342.21 342.21 0 0 0 9.543 3.895c1.878.733 2.385.794 2.577.306.17-.427-.063-.583-.465-.75a9.94 9.94 0 0 1-2.038-1.078c-.945-.721-2.081-2.159-1.856-8.39.392-10.526 2.036-38.544 2.134-42.372.044-1.6-.047-2.269-.505-2.447a.57.57 0 0 0-.403-.006zm145.24 4.662c-2.671-.225-5.284.492-7.704 1.38-1.586.582-5.412 2.191-7.147 2.832-1.08.387-4.372 1.39-7.085 2.384-.763.277-1.078.54-.92.965.16.433.501.442 1.068.233.719-.266 1.611-.523 2.06-.55 1.854-.194 2.618.646 3.486 2.696.82 1.927 1.454 3.643 4.871 12.977l3.957 10.81c2.07 5.645 3.843 10.504 4.53 13.175.449 1.854.69 3.303-.244 3.929a7.294 7.294 0 0 1-1.76.908c-.607.234-.749.494-.636.8.156.428.587.48 1.255.239 2.044-.752 5.207-2.124 6.176-2.475.766-.287 4.623-1.492 7.596-2.572.665-.244.958-.559.8-.994-.111-.309-.388-.417-.8-.266-.613.228-1.781.523-2.594.68-1.625.315-2.432-.924-3.236-2.65-1.199-2.488-2.973-7.337-5.064-13.046l-.312-.857c-.136-.37-.032-.555.227-.648l4.505-1.511c.364-.126.685-.18 1.079.096 1.003.679 4.893 3.991 8.174 6.62 4.6 3.676 7.6 5.847 10.321 6.455 1.65.372 3.035.21 5.91-.84l4.86-1.783c.613-.219.93-.483.749-.97-.11-.31-.384-.418-.795-.268-.41.151-.892.264-1.499.347-.835.098-3.098.437-7.272-2.078-4.41-2.701-9.95-6.872-17.025-12.08 3.33-6.928 3.396-11.687 1.732-16.23-1.508-4.114-4.707-6.493-6.569-7.142a10.878 10.878 0 0 0-2.685-.567zm-126.44 4.059c-.213.046-.338.17-.386.397-.098.45.197.647.783.772.747.158 1.64.423 2.038.642 1.661.829 1.866 1.95 1.5 4.144-.336 2.065-.727 3.853-2.834 13.568l-2.435 11.252c-1.277 5.875-2.37 10.925-3.219 13.55-.617 1.81-1.19 3.16-2.31 3.18a7.429 7.429 0 0 1-1.976-.165c-.637-.133-.89.012-.96.335-.099.44.234.718.926.869 2.133.465 5.528.997 6.54 1.22.803.164 4.704 1.217 7.794 1.885.692.151 1.107.039 1.204-.408.071-.32-.104-.557-.528-.648-.639-.135-1.785-.518-2.555-.817-1.544-.603-1.56-2.074-1.317-3.968.317-2.74 1.415-7.793 2.702-13.732l.193-.897c.085-.382.275-.476.54-.42l4.61 1.14c.372.079.673.212.856.654.485 1.103 1.997 5.985 3.367 9.963 1.917 5.563 3.29 9.011 5.262 10.979 1.191 1.188 2.455 1.8 5.439 2.446l5.064 1.102c.64.133 1.042.085 1.152-.42.068-.325-.102-.558-.528-.653-.425-.088-.892-.266-1.453-.517-.757-.362-2.84-1.285-5.024-5.637-2.284-4.646-4.728-11.13-7.92-19.313 6.518-4.07 9.113-8.066 10.14-12.79.927-4.284-.5-8.012-1.726-9.543-2.367-2.99-5.852-4.15-9.214-4.876-1.65-.364-5.744-1.045-7.556-1.442-1.118-.239-4.432-1.161-7.255-1.777-.4-.088-.701-.12-.914-.074zm121.52.181c3.038.155 6.863 2.215 9.253 8.754 1.845 5.036 1.394 8.4.352 10.31-.63 1.132-1.208 1.626-3.252 2.378-1.286.475-2.885.852-4.116.812-.426-.048-.624-.26-.869-.931l-6.835-18.677c-.182-.488-.16-.769.148-1.022.449-.372 1.345-.773 2.623-1.238a6.893 6.893 0 0 1 2.696-.386zm-146.09 3.083c.152.053.086.378.045.647l-1.35 16.827c-.023.194-.145.362-.398.261l-9.333-3.673c-.203-.078-.189-.278-.04-.5l10.56-13.135c.146-.222.365-.489.516-.426zm108.51 1.397c-.545.08-.755.843-1.118 2.815l-7.409 42.645c-.591 3.4-1.286 5.751-3.707 6.518-.42.125-1.17.31-1.652.38-.433.063-.63.226-.567.613.073.513.42.599 1.124.488 2.8-.417 5.73-1.064 6.33-1.152 1.664-.252 4.016-.409 5.745-.67.591-.088.894-.271.823-.784-.064-.386-.25-.497-.897-.397l-.8.125c-1.673.254-2.289-.512-2.465-1.68-.116-.772-.074-2.366.216-4.065l1.51-9.69c.05-.403.146-.546.415-.59l12.024-1.818c.269-.04.448.074.607.375l6.38 13.057c.387.741.096 1.383-.26 1.561-.53.151-.72.308-.664.693.07.46.714.361 1.691.278a309.01 309.01 0 0 0 10.213-1.413c1.995-.302 2.456-.494 2.379-1.017-.063-.45-.346-.477-.772-.414-.647.095-1.47.166-2.305.085-1.183-.15-2.885-.824-5.813-6.33-4.929-9.31-17.54-34.39-19.37-37.75-.764-1.405-1.178-1.933-1.658-1.863zm-72.755 1.055c.573-.067 1.551.07 2.884.364 3.143.676 7.584 4.386 5.614 13.46-1.137 5.239-3.319 7.839-5.222 8.907-1.141.616-1.888.726-4.02.26-1.333-.286-2.888-.826-3.911-1.515-.33-.271-.384-.55-.233-1.254l4.212-19.421c.111-.515.271-.753.676-.8zm19.478 1.51c-.815-.026-1.421.02-1.436.54-.013.394.146.59.636.607.436.018 1.304.049 2.117.335 1.939.719 2.845 1.468 3.985 5.104l12.444 40.375c.939 3.106 1.233 4.028 1.942 4.053.764.02 1.123-1.01 2.662-4.757 1.307-3.229 4.096-10.274 7.891-19.7 3.203-7.947 4.791-11.425 7.119-17.501 1.602-4.136 2.461-5.227 3.185-5.785 1.004-.759 2.148-.713 2.69-.698.553.011.885-.102.892-.562.017-.455-.407-.605-1.119-.625-1.639-.057-4.208.067-5.131.034-.71-.026-2.995-.292-5.717-.38-1.034-.038-1.532.08-1.55.602-.015.457.42.533.908.55.712.02 1.523.12 2.169.404.49.213.686.74.67 1.26-.023.59-.269 1.559-.568 2.396-1.452 4.276-9.213 25.092-11.785 32.21l-.221-.011-8.413-29.973c-.689-2.375-1.124-4.218-1.096-5.07.019-.592.2-1.042.59-1.356.448-.38 1.269-.421 2.14-.386.49.014.825-.108.84-.562.015-.458-.58-.608-1.237-.63-2.724-.088-5.346.026-6.71-.024-1.906-.058-5.007-.353-7.897-.448zm53.926 10.895c.166-.027.271.287.358.533l7.266 15.242c.085.181.052.386-.215.426l-9.918 1.499c-.221.032-.301-.143-.284-.415l2.555-16.656c.017-.271.08-.607.238-.63z"/></svg>