<svg xmlns="http://www.w3.org/2000/svg" width="79.812" height="80" viewBox="0 0 79.812 80"><g transform="translate(4014 -267.375)"><g transform="translate(-3988 267.375)"><path d="M763.007,512.693h3.765l4.706,27.295a1.012,1.012,0,0,0,.942.94h8a1.013,1.013,0,0,0,.942-.94l4.7-27.295h3.765a1.011,1.011,0,0,0,.941-.942V489.163a4.447,4.447,0,0,0-4.706-4.706H766.775a4.447,4.447,0,0,0-4.708,4.706v22.589A1.011,1.011,0,0,0,763.007,512.693Z" transform="translate(-762.067 -460.928)" fill="#bf1e2e"/><path d="M774.878,467.464a9.412,9.412,0,1,1-9.411,9.411A9.411,9.411,0,0,1,774.878,467.464Z" transform="translate(-760.759 -467.464)" fill="#bf1e2e"/></g><g transform="translate(-3955 289.375)" opacity="0.5"><path d="M762.748,504.928h2.73l3.412,19.789a.734.734,0,0,0,.683.682h5.8a.734.734,0,0,0,.683-.682l3.411-19.789H782.2a.733.733,0,0,0,.683-.683V487.869a3.224,3.224,0,0,0-3.412-3.412H765.48a3.224,3.224,0,0,0-3.413,3.412v16.377A.733.733,0,0,0,762.748,504.928Z" transform="translate(-762.067 -467.399)" fill="#bf1e2e"/><path d="M772.29,467.464a6.824,6.824,0,1,1-6.823,6.823A6.823,6.823,0,0,1,772.29,467.464Z" transform="translate(-762.054 -467.464)" fill="#bf1e2e"/></g><g transform="translate(-4014 289.375)" opacity="0.5"><path d="M762.748,504.928h2.73l3.412,19.789a.734.734,0,0,0,.683.682h5.8a.734.734,0,0,0,.683-.682l3.411-19.789H782.2a.733.733,0,0,0,.683-.683V487.869a3.224,3.224,0,0,0-3.412-3.412H765.48a3.224,3.224,0,0,0-3.413,3.412v16.377A.733.733,0,0,0,762.748,504.928Z" transform="translate(-762.067 -467.399)" fill="#bf1e2e"/><path d="M772.29,467.464a6.824,6.824,0,1,1-6.823,6.823A6.823,6.823,0,0,1,772.29,467.464Z" transform="translate(-762.054 -467.464)" fill="#bf1e2e"/></g></g></svg>