<svg xmlns="http://www.w3.org/2000/svg" width="60" height="59.031" viewBox="0 0 60 59.031"><g transform="translate(-201.772 -328.243)"><path d="M261.772,378.57H210.477V328.243h-1.925v3.874h-1.937v1.937h1.937v3.862h-1.937v1.937h1.937v3.874h-1.937v1.937h1.937v3.874h-1.937v1.925h1.937v3.874h-1.937v1.937h1.937v3.874h-1.937v1.937h1.937v3.863h-1.937v1.937h1.937v3.874h-1.937V374.7h1.937v3.875h-6.78V380.5h6.78v6.779h1.925V380.5h3.874v1.937h1.937V380.5h3.874v1.937H222.1V380.5h3.862v1.937H227.9V380.5h3.874v1.937h1.938V380.5h3.874v1.937h1.925V380.5h3.874v1.937h1.937V380.5h3.874v1.937h1.937V380.5h3.862v1.937h1.937V380.5h4.842Z" fill="#fff"/><path d="M229.922,362.51l5.811,5.811,9.674-9.685,5.8,5.8,9.685-9.7v2.528h1.937v-5.8h-5.8V353.4H259.5l-8.291,8.291-5.8-5.787-9.674,9.673-5.811-5.811-12.3,12.3,1.371,1.37Z" transform="translate(-3.961 -5.802)" fill="#fff"/></g></svg>