<svg xmlns="http://www.w3.org/2000/svg" width="60" height="60" viewBox="0 0 60 60"><g transform="translate(-736.627 -204.661)"><path d="M773.725,233.055a8.7,8.7,0,1,0,8.7,8.7A8.713,8.713,0,0,0,773.725,233.055Zm0,15.485a6.78,6.78,0,1,1,6.779-6.78A6.787,6.787,0,0,1,773.725,248.54Z" transform="translate(-7.098 -7.099)" fill="#fff"/><path d="M796.627,233.693H793.7a27.111,27.111,0,0,0-26.1-26.1v-2.929h-1.937v2.929a27.109,27.109,0,0,0-26.1,26.1h-2.93v1.937h2.93a27.108,27.108,0,0,0,26.1,26.1v2.93H767.6v-2.93a27.11,27.11,0,0,0,26.1-26.1h2.929Zm-4.866,0h-6.8a18.394,18.394,0,0,0-17.375-17.374v-6.792A25.18,25.18,0,0,1,791.761,233.693Zm-25.134,17.421a16.453,16.453,0,1,1,16.453-16.453A16.474,16.474,0,0,1,766.627,251.114Zm-.968-41.587v6.8A18.4,18.4,0,0,0,748.284,233.7h-6.791A25.178,25.178,0,0,1,765.659,209.527Zm-24.166,26.1h6.8A18.4,18.4,0,0,0,765.671,253v6.8A25.2,25.2,0,0,1,741.493,235.63Zm26.1,24.164v-6.8a18.4,18.4,0,0,0,17.374-17.374h6.8A25.2,25.2,0,0,1,767.6,259.794Z" transform="translate(0 0)" fill="#fff"/></g></svg>