<svg xmlns="http://www.w3.org/2000/svg" width="60" height="60" viewBox="0 0 60 60"><g transform="translate(-218.535 -54.233)"><path d="M218.535,114.233h17.422v-60H218.535ZM234.02,60.044h-4.843v1.937h4.843v3.874h-2.905v1.936h2.905v3.875h-4.843V73.6h4.843v3.874h-2.905V79.39h2.905v3.874h-4.843V85.2h4.843v3.874h-2.905v1.937h2.905v3.874h-4.843v1.936h4.843V100.7h-2.905v1.938h2.905v3.874h-4.843v1.937h4.843v3.874h-9.673V56.169h9.673Zm-13.547-3.875h1.936V112.3h-1.936Z" fill="#fff"/><path d="M283.544,86.076a5.813,5.813,0,0,0-8.221-8.221l-27.485,27.5-2.468,10.677,10.677-2.468Zm-5.954-3.626L252.149,107.89l-2.055-2.055,25.441-25.441Zm1.359,1.37L281,85.874l-25.441,25.442-2.055-2.055Zm3.223-4.582a3.837,3.837,0,0,1,1.134,2.74,3.8,3.8,0,0,1-.956,2.516l-5.433-5.434A3.964,3.964,0,0,1,282.172,79.237ZM249.279,107.76l4.37,4.37-5.681,1.311Z" transform="translate(-6.709 -5.48)" fill="#fff"/><rect width="32.811" height="1.937" transform="translate(245.724 110.229)" fill="#fff"/></g></svg>